
<svg version="1.0" xmlns="http://www.w3.org/2000/svg"
 width="626.000000pt" height="319.000000pt" viewBox="0 0 626.000000 319.000000"
 preserveAspectRatio="xMidYMid meet">

<g transform="translate(0.000000,319.000000) scale(0.100000,-0.100000)"
fill="#000000" stroke="none">
<path d="M240 2880 l0 -80 54 0 c32 0 58 5 64 13 12 14 10 115 -2 135 -4 7
-30 12 -62 12 l-54 0 0 -80z m107 44 c8 -21 -13 -34 -54 -34 -29 0 -33 3 -33
25 0 23 4 25 40 25 28 0 43 -5 47 -16z m8 -64 c12 -20 -17 -40 -56 -40 -35 0
-39 3 -39 25 0 23 4 25 44 25 25 0 48 -5 51 -10z"/>
<path d="M427 2854 c-15 -29 -24 -54 -21 -54 4 0 24 5 46 12 33 10 41 9 48 -2
5 -8 12 -12 15 -8 8 7 -42 108 -53 107 -4 0 -19 -25 -35 -55z m41 -22 c-27 -5
-32 2 -18 29 l13 22 13 -24 c11 -22 11 -24 -8 -27z"/>
<path d="M570 2853 c4 -48 5 -52 8 -20 2 20 5 37 8 37 2 0 18 -16 35 -35 17
-19 35 -35 40 -35 5 0 9 25 9 55 0 30 -4 55 -10 55 -5 0 -10 -17 -10 -37 l0
-37 -38 37 c-21 20 -40 37 -42 37 -3 0 -3 -26 0 -57z"/>
<path d="M730 2895 c-16 -20 -16 -61 0 -80 9 -11 26 -15 49 -13 31 3 36 7 39
31 2 19 -1 27 -12 27 -9 0 -16 -4 -16 -10 0 -5 5 -10 10 -10 16 0 11 -17 -6
-24 -20 -8 -64 19 -64 39 0 22 41 45 67 39 14 -4 23 -2 23 5 0 17 -76 13 -90
-4z"/>
<path d="M888 2858 c-15 -28 -26 -53 -24 -55 1 -2 18 2 36 8 25 9 37 9 51 0
30 -18 30 -14 2 44 -15 30 -30 55 -33 55 -3 0 -17 -23 -32 -52z m52 -20 c0 -4
-11 -8 -25 -8 -23 0 -24 2 -13 26 11 24 13 25 25 8 7 -10 13 -21 13 -26z"/>
<path d="M1020 2855 l0 -55 40 0 c22 0 40 5 40 10 0 6 -13 10 -30 10 -29 0
-30 2 -30 45 0 25 -4 45 -10 45 -5 0 -10 -25 -10 -55z"/>
<path d="M1146 2894 c-20 -20 -20 -58 0 -78 24 -24 80 -20 98 6 9 12 16 30 16
39 0 42 -81 66 -114 33z m88 -14 c5 -5 6 -20 2 -33 -11 -47 -86 -40 -86 8 0
39 52 54 84 25z"/>
<path d="M1311 2853 c1 -32 4 -48 6 -36 7 34 35 38 58 9 12 -14 26 -26 33 -26
17 0 15 11 -4 25 -14 10 -14 15 -4 32 22 35 6 53 -45 53 l-45 0 1 -57z m77 25
c-7 -20 -68 -23 -68 -4 0 12 10 16 36 16 24 0 34 -4 32 -12z"/>
<path d="M1470 2855 l0 -55 45 0 c25 0 45 5 45 10 0 6 -16 10 -36 10 -39 0
-44 23 -6 28 12 2 22 7 22 11 0 5 -11 6 -25 3 -18 -3 -25 0 -25 12 0 11 9 16
29 16 17 0 33 5 36 10 4 6 -12 10 -39 10 l-46 0 0 -55z"/>
<path d="M4451 2824 c0 -11 3 -14 6 -6 3 7 2 16 -1 19 -3 4 -6 -2 -5 -13z"/>
<path d="M1790 2805 c0 -8 4 -15 10 -15 5 0 7 7 4 15 -4 8 -8 15 -10 15 -2 0
-4 -7 -4 -15z"/>
<path d="M3861 2754 c0 -11 3 -14 6 -6 3 7 2 16 -1 19 -3 4 -6 -2 -5 -13z"/>
<path d="M5831 2754 c0 -11 3 -14 6 -6 3 7 2 16 -1 19 -3 4 -6 -2 -5 -13z"/>
<path d="M2471 2714 c0 -11 3 -14 6 -6 3 7 2 16 -1 19 -3 4 -6 -2 -5 -13z"/>
<path d="M3659 2625 c-3 -27 -13 -67 -22 -87 l-17 -38 40 0 c45 0 44 -1 28 37
-6 15 -14 53 -18 83 l-6 55 -5 -50z m9 -113 c-27 -5 -30 1 -17 34 l11 29 13
-30 c12 -27 12 -30 -7 -33z"/>
<path d="M3123 2595 c0 -45 1 -45 36 -45 36 0 36 0 36 45 l0 45 -36 0 -37 0 1
-45z"/>
<path d="M1111 2524 c0 -11 3 -14 6 -6 3 7 2 16 -1 19 -3 4 -6 -2 -5 -13z"/>
<path d="M3022 2498 c3 -7 27 -16 54 -19 27 -3 44 -7 39 -7 -7 -1 -10 -63 -10
-172 1 -93 -3 -170 -7 -170 -4 0 -8 -49 -8 -110 0 -103 1 -110 20 -110 11 0
20 -7 20 -15 0 -8 5 -15 10 -15 6 0 10 -9 10 -20 0 -17 -7 -20 -45 -20 -25 0
-45 -4 -45 -10 0 -5 20 -10 45 -10 38 0 45 -3 45 -20 0 -17 -7 -20 -45 -20
-25 0 -45 -4 -45 -10 0 -5 20 -10 45 -10 33 0 45 -4 45 -15 0 -11 -12 -15 -45
-15 -25 0 -45 -4 -45 -10 0 -5 20 -10 45 -10 38 0 45 -3 45 -20 0 -17 -7 -20
-45 -20 -25 0 -45 -4 -45 -10 0 -5 20 -10 45 -10 33 0 45 -4 45 -15 0 -11 -12
-15 -45 -15 -57 0 -59 -18 -3 -22 31 -2 44 -8 46 -20 3 -15 -4 -18 -42 -18
-70 0 -55 -16 22 -23 94 -9 604 -9 599 1 -3 4 -126 6 -275 6 -148 -1 -276 2
-283 7 -10 6 -11 9 -1 9 6 0 12 11 12 25 0 20 5 25 28 26 25 2 26 2 3 6 -30 6
-55 29 -41 38 5 3 10 1 10 -4 0 -6 11 -11 25 -11 14 0 25 5 25 10 0 6 -7 10
-16 8 -10 -2 -19 3 -21 10 -3 6 2 12 10 12 10 0 18 14 22 40 5 32 11 40 28 41
21 1 21 1 -2 8 l-24 6 2 178 c1 114 -1 177 -8 177 -6 0 -11 65 -13 175 -3 194
-9 177 60 178 12 0 22 6 22 13 0 11 -28 14 -136 14 -104 0 -135 -3 -132 -12z"/>
<path d="M3569 2478 l-6 -28 98 0 c55 0 99 3 99 8 0 4 -40 5 -89 4 -87 -4 -89
-3 -93 20 -3 22 -4 22 -9 -4z"/>
<path d="M5111 2464 c0 -11 3 -14 6 -6 3 7 2 16 -1 19 -3 4 -6 -2 -5 -13z"/>
<path d="M3032 2445 c0 -16 2 -22 5 -12 2 9 2 23 0 30 -3 6 -5 -1 -5 -18z"/>
<path d="M3069 2453 c-5 -72 -3 -296 4 -300 4 -2 7 68 7 156 0 89 -2 161 -5
161 -3 0 -6 -8 -6 -17z"/>
<path d="M3239 2458 c-5 -55 -3 -301 3 -304 5 -3 8 67 8 155 0 89 -2 161 -5
161 -3 0 -6 -6 -6 -12z"/>
<path d="M3787 2440 c5 -19 -1 -20 -133 -23 l-139 -3 143 -2 c135 -2 142 -1
142 17 0 11 -4 22 -9 25 -5 4 -7 -3 -4 -14z"/>
<path d="M3271 2434 c0 -11 3 -14 6 -6 3 7 2 16 -1 19 -3 4 -6 -2 -5 -13z"/>
<path d="M3271 2349 c1 -44 3 -56 8 -39 7 25 4 90 -4 99 -3 2 -5 -25 -4 -60z"/>
<path d="M3469 2379 c-3 -7 -3 -25 0 -39 6 -23 11 -25 64 -26 53 0 57 1 57 23
0 22 3 23 69 23 64 0 70 -2 73 -22 2 -17 9 -22 31 -21 15 1 42 1 61 2 28 1 35
5 38 26 3 14 1 25 -6 25 -6 1 -93 0 -193 0 -136 -1 -182 2 -185 12 -3 8 -6 8
-9 -3z"/>
<path d="M3032 2350 c0 -19 2 -27 5 -17 2 9 2 25 0 35 -3 9 -5 1 -5 -18z"/>
<path d="M3030 2285 c0 -14 4 -25 9 -25 4 0 6 11 3 25 -2 14 -6 25 -8 25 -2 0
-4 -11 -4 -25z"/>
<path d="M3270 2214 c0 -37 2 -65 5 -62 9 9 12 119 3 124 -4 3 -8 -25 -8 -62z"/>
<path d="M3470 2255 c0 -14 5 -25 10 -25 6 0 10 11 10 25 0 14 -4 25 -10 25
-5 0 -10 -11 -10 -25z"/>
<path d="M3512 2255 c0 -16 2 -22 5 -12 2 9 2 23 0 30 -3 6 -5 -1 -5 -18z"/>
<path d="M3633 2273 c15 -2 39 -2 55 0 15 2 2 4 -28 4 -30 0 -43 -2 -27 -4z"/>
<path d="M3800 2255 c0 -14 5 -25 10 -25 6 0 10 11 10 25 0 14 -4 25 -10 25
-5 0 -10 -11 -10 -25z"/>
<path d="M3842 2255 c0 -16 2 -22 5 -12 2 9 2 23 0 30 -3 6 -5 -1 -5 -18z"/>
<path d="M3546 2261 c-4 -5 -2 -12 3 -15 5 -4 12 -2 15 3 4 5 2 12 -3 15 -5 4
-12 2 -15 -3z"/>
<path d="M3760 2254 c0 -8 5 -12 10 -9 6 3 10 10 10 16 0 5 -4 9 -10 9 -5 0
-10 -7 -10 -16z"/>
<path d="M560 2235 c0 -8 4 -15 10 -15 5 0 7 7 4 15 -4 8 -8 15 -10 15 -2 0
-4 -7 -4 -15z"/>
<path d="M3030 2199 c0 -29 2 -50 4 -48 9 9 13 90 5 95 -5 3 -9 -18 -9 -47z"/>
<path d="M5610 2235 c0 -8 4 -15 10 -15 5 0 7 7 4 15 -4 8 -8 15 -10 15 -2 0
-4 -7 -4 -15z"/>
<path d="M3633 2233 c15 -2 39 -2 55 0 15 2 2 4 -28 4 -30 0 -43 -2 -27 -4z"/>
<path d="M2500 2166 l0 -54 103 -7 c56 -3 138 -3 182 2 l80 8 3 53 3 52 -185
0 -186 0 0 -54z m300 -1 c0 -12 -20 -15 -120 -15 -100 0 -120 3 -120 15 0 13
20 15 120 15 100 0 120 -2 120 -15z"/>
<path d="M3470 2180 c0 -16 5 -30 10 -30 6 0 10 14 10 30 0 17 -4 30 -10 30
-5 0 -10 -13 -10 -30z"/>
<path d="M3512 2180 c0 -19 2 -27 5 -17 2 9 2 25 0 35 -3 9 -5 1 -5 -18z"/>
<path d="M3633 2203 c15 -2 39 -2 55 0 15 2 2 4 -28 4 -30 0 -43 -2 -27 -4z"/>
<path d="M3800 2180 c0 -16 5 -30 10 -30 6 0 10 14 10 30 0 17 -4 30 -10 30
-5 0 -10 -13 -10 -30z"/>
<path d="M3842 2180 c0 -19 2 -27 5 -17 2 9 2 25 0 35 -3 9 -5 1 -5 -18z"/>
<path d="M3545 2180 c3 -5 10 -10 16 -10 5 0 9 5 9 10 0 6 -7 10 -16 10 -8 0
-12 -4 -9 -10z"/>
<path d="M3760 2180 c0 -5 5 -10 10 -10 6 0 10 5 10 10 0 6 -4 10 -10 10 -5 0
-10 -4 -10 -10z"/>
<path d="M1568 2173 c7 -3 16 -2 19 1 4 3 -2 6 -13 5 -11 0 -14 -3 -6 -6z"/>
<path d="M3633 2163 c15 -2 39 -2 55 0 15 2 2 4 -28 4 -30 0 -43 -2 -27 -4z"/>
<path d="M3940 2090 l0 -60 115 0 115 0 0 60 0 60 -115 0 -115 0 0 -60z m180
-5 c0 -12 -14 -15 -65 -15 -51 0 -65 3 -65 15 0 12 14 15 65 15 51 0 65 -3 65
-15z"/>
<path d="M3470 2120 c0 -11 5 -20 10 -20 6 0 10 9 10 20 0 11 -4 20 -10 20 -5
0 -10 -9 -10 -20z"/>
<path d="M3512 2120 c0 -14 2 -19 5 -12 2 6 2 18 0 25 -3 6 -5 1 -5 -13z"/>
<path d="M3807 2133 c-11 -10 -8 -53 3 -53 6 0 10 14 10 30 0 31 -2 35 -13 23z"/>
<path d="M3842 2110 c0 -19 2 -27 5 -17 2 9 2 25 0 35 -3 9 -5 1 -5 -18z"/>
<path d="M2995 2046 c0 -46 3 -88 8 -92 4 -4 7 34 7 84 0 51 -3 92 -8 92 -4 0
-7 -38 -7 -84z"/>
<path d="M3035 2020 c0 -81 3 -110 13 -110 9 0 12 29 12 110 0 82 -3 110 -13
110 -9 0 -12 -28 -12 -110z"/>
<path d="M3260 1984 c0 -103 3 -143 11 -138 6 3 9 19 5 34 -4 22 -2 27 12 25
9 -1 11 0 5 2 -9 3 -13 35 -13 114 0 66 -4 109 -10 109 -6 0 -10 -55 -10 -146z"/>
<path d="M3313 2060 c0 -41 2 -58 4 -37 2 20 2 54 0 75 -2 20 -4 3 -4 -38z"/>
<path d="M3545 2110 c-3 -5 1 -10 9 -10 9 0 16 5 16 10 0 6 -4 10 -9 10 -6 0
-13 -4 -16 -10z"/>
<path d="M3760 2110 c0 -5 5 -10 10 -10 6 0 10 5 10 10 0 6 -4 10 -10 10 -5 0
-10 -4 -10 -10z"/>
<path d="M1193 2103 c37 -2 97 -2 135 0 37 2 6 3 -68 3 -74 0 -105 -1 -67 -3z"/>
<path d="M3633 2103 c15 -2 39 -2 55 0 15 2 2 4 -28 4 -30 0 -43 -2 -27 -4z"/>
<path d="M2808 2093 c7 -3 16 -2 19 1 4 3 -2 6 -13 5 -11 0 -14 -3 -6 -6z"/>
<path d="M1120 2030 c0 -38 4 -50 15 -50 11 0 15 12 15 50 0 38 -4 50 -15 50
-11 0 -15 -12 -15 -50z"/>
<path d="M1160 2030 c0 -38 4 -50 15 -50 11 0 15 12 15 50 0 38 -4 50 -15 50
-11 0 -15 -12 -15 -50z"/>
<path d="M1210 2070 c0 -5 9 -10 20 -10 11 0 20 5 20 10 0 6 -9 10 -20 10 -11
0 -20 -4 -20 -10z"/>
<path d="M1270 2070 c0 -5 9 -10 20 -10 11 0 20 5 20 10 0 6 -9 10 -20 10 -11
0 -20 -4 -20 -10z"/>
<path d="M1330 2030 c0 -38 4 -50 15 -50 11 0 15 12 15 50 0 38 -4 50 -15 50
-11 0 -15 -12 -15 -50z"/>
<path d="M1370 2030 c0 -38 4 -50 15 -50 11 0 15 12 15 50 0 38 -4 50 -15 50
-11 0 -15 -12 -15 -50z"/>
<path d="M3633 2073 c15 -2 39 -2 55 0 15 2 2 4 -28 4 -30 0 -43 -2 -27 -4z"/>
<path d="M3800 2035 c0 -14 5 -25 10 -25 6 0 10 11 10 25 0 14 -4 25 -10 25
-5 0 -10 -11 -10 -25z"/>
<path d="M3842 2035 c0 -16 2 -22 5 -12 2 9 2 23 0 30 -3 6 -5 -1 -5 -18z"/>
<path d="M1511 2034 c0 -11 3 -14 6 -6 3 7 2 16 -1 19 -3 4 -6 -2 -5 -13z"/>
<path d="M1562 2030 c0 -14 2 -19 5 -12 2 6 2 18 0 25 -3 6 -5 1 -5 -13z"/>
<path d="M1612 2030 c0 -14 2 -19 5 -12 2 6 2 18 0 25 -3 6 -5 1 -5 -13z"/>
<path d="M3380 2040 c0 -5 5 -10 10 -10 6 0 10 5 10 10 0 6 -4 10 -10 10 -5 0
-10 -4 -10 -10z"/>
<path d="M3430 2040 c0 -5 5 -10 10 -10 6 0 10 5 10 10 0 6 -4 10 -10 10 -5 0
-10 -4 -10 -10z"/>
<path d="M3480 2040 c0 -5 5 -10 10 -10 6 0 10 5 10 10 0 6 -4 10 -10 10 -5 0
-10 -4 -10 -10z"/>
<path d="M3633 2043 c15 -2 39 -2 55 0 15 2 2 4 -28 4 -30 0 -43 -2 -27 -4z"/>
<path d="M1233 2033 c15 -2 39 -2 55 0 15 2 2 4 -28 4 -30 0 -43 -2 -27 -4z"/>
<path d="M3545 2030 c3 -5 10 -10 16 -10 5 0 9 5 9 10 0 6 -7 10 -16 10 -8 0
-12 -4 -9 -10z"/>
<path d="M3760 2030 c0 -5 5 -10 10 -10 6 0 10 5 10 10 0 6 -4 10 -10 10 -5 0
-10 -4 -10 -10z"/>
<path d="M3633 2013 c15 -2 39 -2 55 0 15 2 2 4 -28 4 -30 0 -43 -2 -27 -4z"/>
<path d="M3952 2000 c0 -14 2 -19 5 -12 2 6 2 18 0 25 -3 6 -5 1 -5 -13z"/>
<path d="M3972 2000 c0 -14 2 -19 5 -12 2 6 2 18 0 25 -3 6 -5 1 -5 -13z"/>
<path d="M3992 2000 c0 -14 2 -19 5 -12 2 6 2 18 0 25 -3 6 -5 1 -5 -13z"/>
<path d="M4012 2000 c0 -14 2 -19 5 -12 2 6 2 18 0 25 -3 6 -5 1 -5 -13z"/>
<path d="M4032 2000 c0 -14 2 -19 5 -12 2 6 2 18 0 25 -3 6 -5 1 -5 -13z"/>
<path d="M4052 2000 c0 -14 2 -19 5 -12 2 6 2 18 0 25 -3 6 -5 1 -5 -13z"/>
<path d="M4072 2000 c0 -14 2 -19 5 -12 2 6 2 18 0 25 -3 6 -5 1 -5 -13z"/>
<path d="M4092 2000 c0 -14 2 -19 5 -12 2 6 2 18 0 25 -3 6 -5 1 -5 -13z"/>
<path d="M4112 2000 c0 -14 2 -19 5 -12 2 6 2 18 0 25 -3 6 -5 1 -5 -13z"/>
<path d="M4132 2000 c0 -14 2 -19 5 -12 2 6 2 18 0 25 -3 6 -5 1 -5 -13z"/>
<path d="M4152 2000 c0 -14 2 -19 5 -12 2 6 2 18 0 25 -3 6 -5 1 -5 -13z"/>
<path d="M1210 2000 c0 -5 9 -10 20 -10 11 0 20 5 20 10 0 6 -9 10 -20 10 -11
0 -20 -4 -20 -10z"/>
<path d="M1270 2000 c0 -5 9 -10 20 -10 11 0 20 5 20 10 0 6 -9 10 -20 10 -11
0 -20 -4 -20 -10z"/>
<path d="M1740 1995 c0 -10 11 -15 35 -15 24 0 35 5 35 15 0 10 -11 15 -35 15
-24 0 -35 -5 -35 -15z"/>
<path d="M1830 1995 c0 -12 16 -15 80 -15 64 0 80 3 80 15 0 12 -16 15 -80 15
-64 0 -80 -3 -80 -15z"/>
<path d="M2010 1995 c0 -11 11 -15 40 -15 31 0 38 3 34 15 -4 9 -19 15 -40 15
-24 0 -34 -5 -34 -15z"/>
<path d="M1520 1980 c0 -11 4 -20 8 -20 4 0 8 9 8 20 0 11 -4 20 -8 20 -4 0
-8 -9 -8 -20z"/>
<path d="M1562 1975 c0 -16 2 -22 5 -12 2 9 2 23 0 30 -3 6 -5 -1 -5 -18z"/>
<path d="M1592 1975 c0 -16 2 -22 5 -12 2 9 2 23 0 30 -3 6 -5 -1 -5 -18z"/>
<path d="M1622 1975 c0 -16 2 -22 5 -12 2 9 2 23 0 30 -3 6 -5 -1 -5 -18z"/>
<path d="M3633 1983 c15 -2 39 -2 55 0 15 2 2 4 -28 4 -30 0 -43 -2 -27 -4z"/>
<path d="M3800 1960 c0 -16 5 -30 10 -30 6 0 10 14 10 30 0 17 -4 30 -10 30
-5 0 -10 -13 -10 -30z"/>
<path d="M3842 1960 c0 -19 2 -27 5 -17 2 9 2 25 0 35 -3 9 -5 1 -5 -18z"/>
<path d="M1210 1970 c0 -5 9 -10 20 -10 11 0 20 5 20 10 0 6 -9 10 -20 10 -11
0 -20 -4 -20 -10z"/>
<path d="M1267 1974 c-3 -3 -3 -12 0 -20 4 -10 -3 -14 -26 -14 -17 0 -31 -4
-31 -9 0 -5 23 -9 50 -9 48 0 64 10 38 22 -10 5 -10 7 0 12 6 3 12 10 12 15 0
10 -33 12 -43 3z"/>
<path d="M3370 1965 c0 -8 5 -15 10 -15 6 0 10 7 10 15 0 8 -4 15 -10 15 -5 0
-10 -7 -10 -15z"/>
<path d="M3430 1965 c0 -8 5 -15 10 -15 6 0 10 7 10 15 0 8 -4 15 -10 15 -5 0
-10 -7 -10 -15z"/>
<path d="M3490 1965 c0 -8 5 -15 10 -15 6 0 10 7 10 15 0 8 -4 15 -10 15 -5 0
-10 -7 -10 -15z"/>
<path d="M1120 1920 c0 -38 4 -50 15 -50 11 0 15 12 15 50 0 38 -4 50 -15 50
-11 0 -15 -12 -15 -50z"/>
<path d="M1160 1920 c0 -38 4 -50 15 -50 11 0 15 12 15 50 0 38 -4 50 -15 50
-11 0 -15 -12 -15 -50z"/>
<path d="M1330 1920 c0 -38 4 -50 15 -50 11 0 15 12 15 50 0 38 -4 50 -15 50
-11 0 -15 -12 -15 -50z"/>
<path d="M1370 1920 c0 -38 4 -50 15 -50 11 0 15 12 15 50 0 38 -4 50 -15 50
-11 0 -15 -12 -15 -50z"/>
<path d="M3760 1960 c0 -5 5 -10 10 -10 6 0 10 5 10 10 0 6 -4 10 -10 10 -5 0
-10 -4 -10 -10z"/>
<path d="M3952 1950 c0 -14 2 -19 5 -12 2 6 2 18 0 25 -3 6 -5 1 -5 -13z"/>
<path d="M3972 1950 c0 -14 2 -19 5 -12 2 6 2 18 0 25 -3 6 -5 1 -5 -13z"/>
<path d="M3992 1950 c0 -14 2 -19 5 -12 2 6 2 18 0 25 -3 6 -5 1 -5 -13z"/>
<path d="M4012 1950 c0 -14 2 -19 5 -12 2 6 2 18 0 25 -3 6 -5 1 -5 -13z"/>
<path d="M4032 1950 c0 -14 2 -19 5 -12 2 6 2 18 0 25 -3 6 -5 1 -5 -13z"/>
<path d="M4052 1950 c0 -14 2 -19 5 -12 2 6 2 18 0 25 -3 6 -5 1 -5 -13z"/>
<path d="M4072 1950 c0 -14 2 -19 5 -12 2 6 2 18 0 25 -3 6 -5 1 -5 -13z"/>
<path d="M4092 1950 c0 -14 2 -19 5 -12 2 6 2 18 0 25 -3 6 -5 1 -5 -13z"/>
<path d="M4112 1950 c0 -14 2 -19 5 -12 2 6 2 18 0 25 -3 6 -5 1 -5 -13z"/>
<path d="M4132 1950 c0 -14 2 -19 5 -12 2 6 2 18 0 25 -3 6 -5 1 -5 -13z"/>
<path d="M4152 1950 c0 -14 2 -19 5 -12 2 6 2 18 0 25 -3 6 -5 1 -5 -13z"/>
<path d="M3613 1954 c9 -9 97 -10 97 -1 0 4 -23 7 -52 7 -28 0 -48 -3 -45 -6z"/>
<path d="M1740 1925 c0 -10 11 -15 35 -15 24 0 35 5 35 15 0 10 -11 15 -35 15
-24 0 -35 -5 -35 -15z"/>
<path d="M1830 1925 c0 -12 16 -15 80 -15 64 0 80 3 80 15 0 12 -16 15 -80 15
-64 0 -80 -3 -80 -15z"/>
<path d="M2010 1925 c0 -11 11 -15 40 -15 31 0 38 3 34 15 -4 9 -19 15 -40 15
-24 0 -34 -5 -34 -15z"/>
<path d="M3345 1910 c-3 -6 1 -7 9 -4 18 7 21 14 7 14 -6 0 -13 -4 -16 -10z"/>
<path d="M3510 1916 c0 -2 7 -7 16 -10 8 -3 12 -2 9 4 -6 10 -25 14 -25 6z"/>
<path d="M3633 1913 c15 -2 39 -2 55 0 15 2 2 4 -28 4 -30 0 -43 -2 -27 -4z"/>
<path d="M3807 1913 c-11 -10 -8 -53 3 -53 6 0 10 14 10 30 0 31 -2 35 -13 23z"/>
<path d="M3842 1890 c0 -19 2 -27 5 -17 2 9 2 25 0 35 -3 9 -5 1 -5 -18z"/>
<path d="M1210 1900 c0 -5 9 -10 20 -10 11 0 20 5 20 10 0 6 -9 10 -20 10 -11
0 -20 -4 -20 -10z"/>
<path d="M1270 1900 c0 -5 9 -10 20 -10 11 0 20 5 20 10 0 6 -9 10 -20 10 -11
0 -20 -4 -20 -10z"/>
<path d="M3578 1903 c7 -3 16 -2 19 1 4 3 -2 6 -13 5 -11 0 -14 -3 -6 -6z"/>
<path d="M3952 1890 c0 -14 2 -19 5 -12 2 6 2 18 0 25 -3 6 -5 1 -5 -13z"/>
<path d="M3972 1890 c0 -14 2 -19 5 -12 2 6 2 18 0 25 -3 6 -5 1 -5 -13z"/>
<path d="M3992 1890 c0 -14 2 -19 5 -12 2 6 2 18 0 25 -3 6 -5 1 -5 -13z"/>
<path d="M4012 1890 c0 -14 2 -19 5 -12 2 6 2 18 0 25 -3 6 -5 1 -5 -13z"/>
<path d="M4032 1890 c0 -14 2 -19 5 -12 2 6 2 18 0 25 -3 6 -5 1 -5 -13z"/>
<path d="M4052 1890 c0 -14 2 -19 5 -12 2 6 2 18 0 25 -3 6 -5 1 -5 -13z"/>
<path d="M4072 1890 c0 -14 2 -19 5 -12 2 6 2 18 0 25 -3 6 -5 1 -5 -13z"/>
<path d="M4092 1890 c0 -14 2 -19 5 -12 2 6 2 18 0 25 -3 6 -5 1 -5 -13z"/>
<path d="M4112 1890 c0 -14 2 -19 5 -12 2 6 2 18 0 25 -3 6 -5 1 -5 -13z"/>
<path d="M4132 1890 c0 -14 2 -19 5 -12 2 6 2 18 0 25 -3 6 -5 1 -5 -13z"/>
<path d="M4152 1890 c0 -14 2 -19 5 -12 2 6 2 18 0 25 -3 6 -5 1 -5 -13z"/>
<path d="M3760 1890 c0 -5 5 -10 10 -10 6 0 10 5 10 10 0 6 -4 10 -10 10 -5 0
-10 -4 -10 -10z"/>
<path d="M3350 1866 c0 -14 5 -26 10 -26 6 0 10 7 10 15 0 8 0 18 1 22 0 4 -4
9 -10 11 -6 2 -11 -8 -11 -22z"/>
<path d="M3430 1865 c0 -14 5 -25 10 -25 6 0 10 11 10 25 0 14 -4 25 -10 25
-5 0 -10 -11 -10 -25z"/>
<path d="M3510 1865 c0 -14 5 -25 10 -25 6 0 10 11 10 25 0 14 -4 25 -10 25
-5 0 -10 -11 -10 -25z"/>
<path d="M3633 1883 c15 -2 39 -2 55 0 15 2 2 4 -28 4 -30 0 -43 -2 -27 -4z"/>
<path d="M1233 1863 c15 -2 39 -2 55 0 15 2 2 4 -28 4 -30 0 -43 -2 -27 -4z"/>
<path d="M1740 1855 c0 -10 11 -15 35 -15 24 0 35 5 35 15 0 10 -11 15 -35 15
-24 0 -35 -5 -35 -15z"/>
<path d="M1830 1855 c0 -12 16 -15 80 -15 64 0 80 3 80 15 0 12 -16 15 -80 15
-64 0 -80 -3 -80 -15z"/>
<path d="M2010 1855 c0 -11 11 -15 40 -15 31 0 38 3 34 15 -4 9 -19 15 -40 15
-24 0 -34 -5 -34 -15z"/>
<path d="M2518 1863 c6 -2 18 -2 25 0 6 3 1 5 -13 5 -14 0 -19 -2 -12 -5z"/>
<path d="M2568 1863 c7 -3 16 -2 19 1 4 3 -2 6 -13 5 -11 0 -14 -3 -6 -6z"/>
<path d="M3633 1853 c15 -2 39 -2 55 0 15 2 2 4 -28 4 -30 0 -43 -2 -27 -4z"/>
<path d="M3952 1840 c0 -14 2 -19 5 -12 2 6 2 18 0 25 -3 6 -5 1 -5 -13z"/>
<path d="M3972 1840 c0 -14 2 -19 5 -12 2 6 2 18 0 25 -3 6 -5 1 -5 -13z"/>
<path d="M3992 1840 c0 -14 2 -19 5 -12 2 6 2 18 0 25 -3 6 -5 1 -5 -13z"/>
<path d="M4012 1840 c0 -14 2 -19 5 -12 2 6 2 18 0 25 -3 6 -5 1 -5 -13z"/>
<path d="M4032 1840 c0 -14 2 -19 5 -12 2 6 2 18 0 25 -3 6 -5 1 -5 -13z"/>
<path d="M4052 1840 c0 -14 2 -19 5 -12 2 6 2 18 0 25 -3 6 -5 1 -5 -13z"/>
<path d="M4072 1840 c0 -14 2 -19 5 -12 2 6 2 18 0 25 -3 6 -5 1 -5 -13z"/>
<path d="M4099 1817 c-4 -41 -3 -44 21 -41 14 1 57 2 97 3 62 1 72 4 78 21 3
11 3 29 0 40 -6 18 -15 20 -100 20 l-93 0 -3 -43z"/>
<path d="M1122 1803 c4 -66 28 -70 28 -4 0 39 -4 51 -16 51 -12 0 -14 -10 -12
-47z"/>
<path d="M1160 1804 c0 -40 2 -45 15 -34 8 7 15 28 15 46 0 24 -5 34 -15 34
-11 0 -15 -12 -15 -46z"/>
<path d="M1331 1827 c-1 -24 -4 -27 -27 -21 -17 4 -29 2 -36 -7 -7 -11 -11
-11 -15 -1 -2 6 -14 12 -25 12 -11 0 -18 -5 -16 -12 3 -9 36 -13 114 -15 60 0
101 1 92 4 -12 3 -18 14 -18 34 0 39 -30 40 -31 2 l-1 -28 -8 30 -8 30 -2 -30
-2 -30 -8 30 -8 30 -1 -28z"/>
<path d="M1210 1830 c0 -5 9 -10 20 -10 11 0 20 5 20 10 0 6 -9 10 -20 10 -11
0 -20 -4 -20 -10z"/>
<path d="M1270 1830 c0 -5 9 -10 20 -10 11 0 20 5 20 10 0 6 -9 10 -20 10 -11
0 -20 -4 -20 -10z"/>
<path d="M2770 1830 c0 -5 18 -10 40 -10 22 0 40 5 40 10 0 6 -18 10 -40 10
-22 0 -40 -4 -40 -10z"/>
<path d="M2860 1830 c0 -6 38 -10 95 -10 57 0 95 4 95 10 0 6 -38 10 -95 10
-57 0 -95 -4 -95 -10z"/>
<path d="M3800 1815 c0 -14 5 -25 10 -25 6 0 10 11 10 25 0 14 -4 25 -10 25
-5 0 -10 -11 -10 -25z"/>
<path d="M3842 1810 c0 -19 2 -27 5 -17 2 9 2 25 0 35 -3 9 -5 1 -5 -18z"/>
<path d="M3630 1821 c15 -4 26 -15 28 -29 3 -18 -2 -22 -25 -23 -28 -1 -28 -1
-3 -8 20 -5 26 -15 31 -46 3 -22 7 -34 8 -27 0 7 16 12 41 12 36 0 40 -3 40
-24 0 -18 -7 -26 -22 -29 -22 -4 -22 -4 -2 -6 20 -1 22 -6 22 -81 0 -44 -4
-80 -9 -80 -5 0 -9 9 -9 20 0 20 -7 20 -290 20 -187 0 -290 -4 -290 -10 0 -5
-20 -10 -45 -10 -25 0 -45 -4 -45 -10 0 -6 27 -10 60 -10 33 0 60 -4 60 -10 0
-6 28 -10 65 -10 37 0 65 4 65 10 0 6 7 10 15 10 8 0 15 -4 15 -10 0 -6 40
-10 100 -10 60 0 100 4 100 10 0 6 7 10 15 10 8 0 15 -4 15 -10 0 -14 127 -13
132 1 2 7 13 9 26 5 24 -8 31 -51 10 -59 -10 -4 -10 -6 0 -6 6 -1 12 -12 12
-25 0 -13 -6 -27 -12 -29 -10 -4 -10 -6 0 -6 6 -1 12 -10 12 -20 0 -11 -6 -22
-12 -24 -10 -4 -10 -6 0 -6 15 -1 16 -48 0 -53 -7 -3 -6 -7 5 -11 16 -6 17 7
18 151 0 86 2 182 5 212 2 30 5 94 7 143 l3 87 -86 -1 c-50 -1 -75 -4 -60 -8z
m120 -26 c0 -22 -4 -25 -40 -25 -36 0 -40 3 -40 25 0 23 4 25 40 25 36 0 40
-2 40 -25z m0 -60 c0 -22 -4 -25 -40 -25 -36 0 -40 3 -40 25 0 23 4 25 40 25
36 0 40 -2 40 -25z"/>
<path d="M3901 1814 c0 -11 3 -14 6 -6 3 7 2 16 -1 19 -3 4 -6 -2 -5 -13z"/>
<path d="M2568 1803 c7 -3 16 -2 19 1 4 3 -2 6 -13 5 -11 0 -14 -3 -6 -6z"/>
<path d="M3952 1790 c0 -14 2 -19 5 -12 2 6 2 18 0 25 -3 6 -5 1 -5 -13z"/>
<path d="M3972 1790 c0 -14 2 -19 5 -12 2 6 2 18 0 25 -3 6 -5 1 -5 -13z"/>
<path d="M3992 1790 c0 -14 2 -19 5 -12 2 6 2 18 0 25 -3 6 -5 1 -5 -13z"/>
<path d="M4012 1790 c0 -14 2 -19 5 -12 2 6 2 18 0 25 -3 6 -5 1 -5 -13z"/>
<path d="M4032 1790 c0 -14 2 -19 5 -12 2 6 2 18 0 25 -3 6 -5 1 -5 -13z"/>
<path d="M4052 1790 c0 -14 2 -19 5 -12 2 6 2 18 0 25 -3 6 -5 1 -5 -13z"/>
<path d="M4072 1790 c0 -14 2 -19 5 -12 2 6 2 18 0 25 -3 6 -5 1 -5 -13z"/>
<path d="M1740 1785 c0 -10 11 -15 35 -15 24 0 35 5 35 15 0 10 -11 15 -35 15
-24 0 -35 -5 -35 -15z"/>
<path d="M1830 1785 c0 -12 8 -16 33 -13 17 2 32 8 32 13 0 6 -15 11 -32 13
-25 3 -33 -1 -33 -13z"/>
<path d="M1930 1787 c0 -8 12 -14 30 -14 18 0 30 6 30 14 0 8 -12 13 -30 13
-18 0 -30 -5 -30 -13z"/>
<path d="M2027 1794 c-15 -15 -6 -22 26 -19 17 1 31 6 30 11 -3 11 -46 17 -56
8z"/>
<path d="M3250 1790 c-13 -8 -12 -10 3 -10 9 0 17 5 17 10 0 12 -1 12 -20 0z"/>
<path d="M3610 1790 c0 -6 7 -10 15 -10 8 0 15 2 15 4 0 2 -7 6 -15 10 -8 3
-15 1 -15 -4z"/>
<path d="M2770 1770 c0 -5 18 -10 40 -10 22 0 40 5 40 10 0 6 -18 10 -40 10
-22 0 -40 -4 -40 -10z"/>
<path d="M2860 1770 c0 -6 36 -10 89 -10 50 0 93 5 96 10 4 6 -28 10 -89 10
-57 0 -96 -4 -96 -10z"/>
<path d="M3430 1750 c0 -16 5 -30 10 -30 6 0 10 14 10 30 0 17 -4 30 -10 30
-5 0 -10 -13 -10 -30z"/>
<path d="M3320 1745 c0 -18 5 -25 20 -25 15 0 20 7 20 25 0 18 -5 25 -20 25
-15 0 -20 -7 -20 -25z"/>
<path d="M3520 1745 c0 -18 5 -25 20 -25 15 0 20 7 20 25 0 18 -5 25 -20 25
-15 0 -20 -7 -20 -25z"/>
<path d="M3800 1740 c0 -16 5 -30 10 -30 6 0 10 14 10 30 0 17 -4 30 -10 30
-5 0 -10 -13 -10 -30z"/>
<path d="M3842 1740 c0 -19 2 -27 5 -17 2 9 2 25 0 35 -3 9 -5 1 -5 -18z"/>
<path d="M5800 1760 c0 -5 7 -10 15 -10 8 0 15 5 15 10 0 6 -7 10 -15 10 -8 0
-15 -4 -15 -10z"/>
<path d="M5870 1760 c0 -5 14 -10 30 -10 17 0 30 5 30 10 0 6 -13 10 -30 10
-16 0 -30 -4 -30 -10z"/>
<path d="M5950 1760 c0 -5 11 -10 25 -10 14 0 25 5 25 10 0 6 -11 10 -25 10
-14 0 -25 -4 -25 -10z"/>
<path d="M6040 1760 c0 -5 7 -10 15 -10 8 0 15 5 15 10 0 6 -7 10 -15 10 -8 0
-15 -4 -15 -10z"/>
<path d="M4132 1740 c0 -14 2 -19 5 -12 2 6 2 18 0 25 -3 6 -5 1 -5 -13z"/>
<path d="M1173 1743 c-9 -3 -12 -23 -11 -56 1 -44 2 -46 5 -14 l4 37 170 0
c162 0 169 1 169 20 0 19 -6 20 -162 19 -90 0 -169 -3 -175 -6z"/>
<path d="M3952 1730 c0 -14 2 -19 5 -12 2 6 2 18 0 25 -3 6 -5 1 -5 -13z"/>
<path d="M3992 1730 c0 -14 2 -19 5 -12 2 6 2 18 0 25 -3 6 -5 1 -5 -13z"/>
<path d="M4012 1730 c0 -14 2 -19 5 -12 2 6 2 18 0 25 -3 6 -5 1 -5 -13z"/>
<path d="M4032 1730 c0 -14 2 -19 5 -12 2 6 2 18 0 25 -3 6 -5 1 -5 -13z"/>
<path d="M4052 1730 c0 -14 2 -19 5 -12 2 6 2 18 0 25 -3 6 -5 1 -5 -13z"/>
<path d="M4072 1730 c0 -14 2 -19 5 -12 2 6 2 18 0 25 -3 6 -5 1 -5 -13z"/>
<path d="M4091 1734 c0 -11 3 -14 6 -6 3 7 2 16 -1 19 -3 4 -6 -2 -5 -13z"/>
<path d="M4111 1734 c0 -11 3 -14 6 -6 3 7 2 16 -1 19 -3 4 -6 -2 -5 -13z"/>
<path d="M1120 1690 c0 -38 4 -50 15 -50 11 0 15 12 15 50 0 38 -4 50 -15 50
-11 0 -15 -12 -15 -50z"/>
<path d="M2499 1720 c-75 -39 -238 -100 -266 -100 -24 0 -29 -4 -29 -22 1 -19
-6 -24 -39 -28 -39 -6 -41 -5 -39 20 1 14 -1 17 -3 7 -2 -9 -12 -21 -22 -27
-15 -8 -17 -6 -14 14 4 17 -1 25 -16 29 -19 4 -21 1 -21 -33 0 -22 5 -40 13
-43 19 -7 20 -67 1 -67 -8 0 -14 -9 -14 -20 0 -11 7 -20 15 -20 8 0 15 -9 15
-20 0 -11 -7 -20 -15 -20 -23 0 -22 -125 2 -134 12 -5 13 -10 5 -18 -6 -6 -8
-16 -5 -24 5 -13 -20 -9 -68 11 -10 3 -20 2 -24 -4 -10 -18 -45 -13 -45 6 0
13 -3 14 -11 6 -9 -9 -20 -8 -43 4 -17 9 -34 21 -38 27 -5 8 -8 7 -8 -1 0 -7
-5 -13 -11 -13 -6 0 -9 19 -7 47 2 36 7 49 20 51 12 2 19 -5 24 -22 4 -16 13
-26 25 -26 10 0 25 -10 33 -22 15 -21 16 -14 16 95 0 97 -3 117 -15 117 -10 0
-15 -10 -15 -30 l0 -30 -115 0 c-96 0 -115 3 -115 15 0 13 -82 15 -675 15
l-675 0 0 -104 c0 -99 1 -104 20 -99 11 3 20 14 20 23 0 10 8 21 18 24 32 10
117 4 140 -10 22 -14 22 -14 20 35 -3 62 16 85 88 108 l53 16 58 -29 c53 -27
58 -32 60 -64 3 -67 3 -66 11 -52 11 17 82 29 82 13 0 -6 9 -11 20 -11 13 0
22 -9 26 -25 3 -14 10 -23 14 -20 11 7 43 -32 36 -44 -4 -5 -31 -7 -62 -5 -37
4 -61 1 -71 -8 -13 -10 -17 -10 -20 0 -3 6 -17 12 -31 12 l-27 -1 24 -19 23
-20 -28 0 -29 0 3 77 c3 96 -9 123 -66 143 -39 13 -44 13 -87 -8 l-45 -22 0
-56 c0 -68 15 -83 75 -77 29 4 44 1 54 -11 12 -14 9 -16 -33 -16 -25 0 -55 6
-66 13 -17 10 -22 9 -29 -2 -7 -11 -10 -9 -16 8 -4 15 -14 21 -33 21 -15 0
-56 0 -91 -1 -48 0 -67 -4 -76 -16 -7 -9 -17 -13 -23 -9 -8 5 -12 -3 -12 -24
l0 -31 -57 1 c-137 4 -133 5 -133 -40 l0 -40 3000 0 3000 0 0 40 c0 41 -9 47
-57 41 -8 -1 -10 5 -7 14 3 8 1 15 -5 15 -6 0 -11 7 -11 15 0 8 6 15 14 15 8
0 18 5 22 12 4 7 3 8 -5 4 -6 -4 -24 0 -38 9 -14 10 -40 19 -57 20 -18 2 -50
11 -72 21 -21 9 -45 16 -53 15 -8 -2 -10 3 -6 11 6 10 5 11 -6 1 -8 -8 -43
-13 -96 -13 -80 0 -83 -1 -83 -23 0 -17 9 -26 35 -36 19 -7 35 -17 35 -22 0
-5 -16 -9 -35 -9 -31 0 -35 -3 -35 -25 0 -24 -2 -25 -75 -25 -41 0 -75 2 -75
4 0 2 3 12 6 21 5 12 9 13 14 5 6 -9 19 -10 46 -4 l39 8 -45 6 c-64 7 -88 1
-93 -24 -4 -20 -4 -20 -6 2 0 12 -7 22 -15 22 -7 0 -17 -10 -21 -22 l-8 -23
-4 23 c-5 27 -33 30 -33 2 0 -18 -8 -19 -114 -19 -105 0 -114 1 -119 19 -5 18
0 20 66 21 40 1 86 0 103 -1 18 -1 35 3 39 9 4 7 -6 11 -28 11 -41 0 -97 18
-97 31 0 6 -6 4 -14 -3 -10 -9 -11 -15 -2 -20 6 -4 -10 -8 -36 -8 -47 0 -48
-1 -48 -30 l0 -30 -75 0 c-41 0 -75 4 -75 9 0 5 -3 16 -6 25 -4 11 0 16 12 16
11 1 2 7 -20 15 -21 7 -43 18 -49 24 -6 6 -28 11 -48 11 -30 0 -37 -4 -35 -17
2 -13 12 -18 37 -18 19 0 38 -6 42 -13 5 -7 12 -10 18 -7 5 4 9 2 9 -3 0 -6
-27 -10 -60 -9 -33 0 -63 -3 -67 -7 -5 -4 -3 -7 2 -6 26 6 75 -1 75 -10 0 -16
-192 -8 -198 9 -3 9 0 11 8 6 9 -5 11 -4 6 4 -9 14 -26 5 -26 -15 0 -11 -24
-14 -135 -13 -107 0 -135 3 -135 14 0 7 5 15 12 17 7 3 9 14 5 29 -6 23 -10
24 -76 24 -38 0 -67 -3 -65 -6 2 -3 -8 -4 -21 -1 -29 5 -60 -21 -51 -44 4 -11
10 -12 25 -5 19 10 31 6 31 -12 0 -5 -7 -7 -15 -3 -8 3 -15 2 -15 -3 0 -10
-152 -7 -168 3 -7 4 -12 2 -12 -3 0 -7 -23 -10 -57 -10 -32 1 -46 4 -30 6 15
2 27 11 27 19 0 12 -19 19 -43 15 -5 -1 -6 3 -2 9 3 5 -3 10 -14 10 -13 0 -21
-7 -22 -17 0 -15 -2 -15 -8 2 -8 19 -8 19 -16 -5 -7 -23 -8 -24 -15 -5 -7 18
-8 18 -15 -7 -6 -25 -9 -26 -70 -24 -45 1 -69 6 -83 19 -15 14 -22 15 -28 6
-4 -8 -3 -10 4 -5 7 4 12 3 12 -3 0 -5 -5 -13 -11 -17 -13 -8 -31 16 -24 34 2
6 0 12 -5 12 -6 0 -10 8 -10 18 -1 16 -1 16 -11 0 -9 -17 -13 -17 -47 -3 -20
9 -40 21 -44 28 -12 20 -10 -21 3 -45 10 -18 9 -20 -5 -15 -9 4 -15 3 -15 -1
4 -25 -4 -32 -41 -32 -22 0 -40 5 -40 10 0 6 16 10 35 10 19 0 35 5 35 10 0 6
-20 10 -45 10 -33 0 -45 4 -45 15 0 8 3 14 8 14 38 -6 42 1 42 71 l0 70 -60 0
c-70 0 -76 -11 -30 -60 34 -36 34 -38 16 -63 -13 -17 -16 -17 -62 4 -27 12
-52 24 -56 26 -5 2 -8 -2 -8 -10 0 -8 14 -20 30 -27 29 -12 41 -30 20 -30 -5
0 -10 -11 -10 -25 0 -19 -5 -25 -21 -25 -17 0 -20 5 -17 24 4 20 1 23 -24 24
-15 0 -28 -4 -28 -9 0 -5 -16 -9 -35 -9 -44 0 -46 20 -2 21 l32 1 -38 8 c-21
4 -51 17 -67 29 -34 25 -50 27 -50 6 0 -8 7 -15 15 -15 18 0 20 -16 3 -23 -8
-3 -6 -6 5 -6 38 -2 14 -19 -28 -19 -32 -1 -47 3 -54 16 -6 9 -11 12 -11 6 0
-17 -40 -25 -40 -8 0 9 -11 14 -32 14 -40 1 -81 32 -72 54 5 12 21 16 70 16
57 0 66 -3 73 -22 l8 -22 5 22 c6 20 12 21 112 21 l106 0 0 -30 c0 -20 4 -29
13 -27 17 6 22 99 5 109 -10 7 -9 9 5 9 12 0 17 -8 17 -25 0 -14 5 -25 10 -25
7 0 10 25 8 68 l-3 67 -57 3 c-38 2 -58 -1 -58 -8 0 -7 14 -10 37 -8 22 2 38
-2 41 -10 3 -9 -39 -12 -183 -12 -145 0 -186 3 -183 13 3 8 29 13 73 14 67 2
107 13 47 13 -22 0 -32 5 -32 15 0 9 9 15 24 15 14 0 28 5 31 10 4 6 -7 10
-24 10 -24 0 -31 4 -31 20 0 16 7 20 30 20 17 0 30 4 30 9 0 10 -73 21 -142
21 -35 0 -48 4 -46 13 3 8 36 14 99 17 124 7 95 19 -56 23 -114 3 -124 5 -205
41 -47 21 -101 45 -120 53 -19 9 -37 17 -40 18 -3 2 -21 -5 -41 -15z m-2149
-331 c0 -17 -4 -28 -10 -24 -5 3 -10 17 -10 31 0 13 5 24 10 24 6 0 10 -14 10
-31z m80 1 c0 -31 -16 -41 -26 -15 -8 19 2 45 16 45 5 0 10 -13 10 -30z m67
-17 c-4 -17 -4 -17 -12 0 -4 9 -4 25 0 35 8 16 8 16 12 0 3 -10 3 -26 0 -35z
m353 16 c0 -17 -4 -28 -10 -24 -5 3 -10 17 -10 31 0 13 5 24 10 24 6 0 10 -14
10 -31z m80 1 c0 -31 -16 -41 -26 -15 -8 19 2 45 16 45 5 0 10 -13 10 -30z
m70 -1 c0 -17 -4 -28 -10 -24 -5 3 -10 17 -10 31 0 13 5 24 10 24 6 0 10 -14
10 -31z m2020 -34 l0 -45 -50 0 -50 0 0 45 0 45 50 0 50 0 0 -45z m110 0 l0
-45 -50 0 -50 0 0 45 0 45 50 0 50 0 0 -45z m120 0 l0 -45 -50 0 -50 0 0 45 0
45 50 0 50 0 0 -45z m-2090 4 c0 -5 -7 -9 -16 -9 -9 0 -14 -5 -12 -12 7 -21
26 -20 33 1 8 25 51 38 76 23 13 -9 19 -8 23 4 3 8 10 12 16 9 15 -10 12 -25
-6 -25 -9 0 -14 -5 -12 -12 7 -21 26 -20 33 1 8 25 51 38 76 23 13 -9 19 -8
23 4 3 8 10 12 16 9 15 -9 12 -25 -5 -25 -17 0 -20 -16 -5 -25 6 -4 20 5 31
19 26 34 62 33 88 0 l21 -27 21 27 c39 50 99 23 99 -46 0 -27 4 -38 15 -38 8
0 15 -5 15 -12 0 -8 3 -8 9 -3 6 6 11 30 13 55 2 37 6 45 23 45 16 0 21 -8 23
-38 2 -21 -2 -45 -8 -52 -9 -11 -4 -14 26 -17 21 -2 39 -9 42 -15 3 -10 -17
-12 -77 -11 -45 1 -81 5 -81 10 0 4 -6 8 -14 8 -11 0 -13 10 -9 41 l6 40 -38
-3 -38 -3 -1 -53 -1 -52 47 0 c26 0 50 -4 53 -10 6 -10 -68 -13 -310 -10 -87
1 -132 5 -137 13 -6 9 -8 9 -8 0 0 -21 -116 -17 -124 3 -6 16 -8 16 -24 0 -33
-29 -39 -19 -37 59 2 56 7 81 20 95 20 22 60 27 71 9 5 -8 10 -6 16 5 9 16 28
13 28 -5z m390 6 c0 -8 -4 -15 -9 -15 -13 0 -22 16 -14 24 11 11 23 6 23 -9z
m702 -49 c19 -24 22 -44 9 -66 -8 -12 -18 -10 -63 10 -67 30 -70 33 -62 54 15
39 84 40 116 2z m355 -32 c3 -8 12 -13 20 -10 8 4 31 -3 52 -13 20 -11 50 -22
66 -25 68 -12 99 -16 88 -10 -20 9 -15 31 6 37 25 6 31 0 31 -30 0 -16 -4 -22
-12 -17 -7 4 -8 3 -4 -4 4 -7 4 -17 0 -23 -4 -8 -9 -7 -15 2 -7 11 -12 12 -29
2 -28 -18 -95 -16 -110 2 -9 11 -16 13 -24 5 -12 -12 -46 -14 -46 -2 0 4 5 13
11 19 9 9 1 12 -30 11 -22 0 -41 -4 -41 -9 0 -5 -4 -9 -10 -9 -15 0 -12 30 3
31 6 0 2 4 -10 9 -13 6 -23 18 -23 30 0 16 6 20 35 20 23 0 38 -6 42 -16z
m-398 -38 c25 -13 58 -27 74 -30 15 -4 27 -11 27 -16 0 -13 -17 -13 -25 1 -5
7 -12 5 -23 -5 -10 -8 -37 -15 -62 -16 -65 -3 -72 -1 -64 12 5 8 2 9 -9 5 -10
-4 -17 -1 -17 6 0 8 -4 7 -10 -3 -14 -23 -22 -6 -10 24 8 23 37 43 64 45 4 1
29 -10 55 -23z m3681 9 c7 -8 21 -15 31 -15 15 0 19 -7 19 -36 0 -36 -1 -36
-32 -30 -41 8 -44 12 -27 33 11 14 11 15 0 9 -21 -13 -91 14 -91 36 0 15 8 18
44 18 26 0 48 -6 56 -15z m-3368 -20 c5 -26 -5 -31 -36 -19 -26 10 -20 44 8
44 17 0 25 -7 28 -25z m-119 0 c4 -8 2 -17 -3 -20 -6 -4 -10 3 -10 14 0 25 6
27 13 6z m3600 -6 c30 -8 37 -15 37 -34 0 -18 -5 -25 -20 -25 -12 0 -20 7 -20
17 0 15 -1 15 -13 -2 -18 -24 -37 -11 -37 26 0 33 1 33 53 18z m-1573 -19 c-1
-21 -25 -33 -74 -37 -47 -3 -56 -1 -56 13 0 13 9 15 49 12 31 -2 47 1 44 7 -2
6 6 11 17 11 11 0 20 -3 20 -6z m-4029 -23 c-13 -13 -26 -3 -16 12 3 6 11 8
17 5 6 -4 6 -10 -1 -17z m151 8 c21 0 17 -15 -5 -15 -26 0 -42 12 -30 23 3 4
11 3 17 -1 6 -4 14 -7 18 -7z m-59 -2 c-7 -2 -19 -2 -25 0 -7 3 -2 5 12 5 14
0 19 -2 13 -5z m217 -13 c0 -6 -26 -10 -59 -10 -33 0 -63 5 -66 10 -4 6 18 10
59 10 37 0 66 -4 66 -10z m140 0 c0 -5 -5 -10 -11 -10 -5 0 -7 5 -4 10 3 6 8
10 11 10 2 0 4 -4 4 -10z m980 0 c0 -6 -28 -10 -65 -10 -37 0 -65 4 -65 10 0
6 28 10 65 10 37 0 65 -4 65 -10z m1630 0 c0 -5 -4 -10 -10 -10 -5 0 -10 5
-10 10 0 6 5 10 10 10 6 0 10 -4 10 -10z m500 -2 c0 -4 -17 -8 -37 -7 -33 1
-35 2 -13 8 33 10 50 9 50 -1z"/>
<path d="M2930 1355 c0 -24 5 -35 15 -35 10 0 15 11 15 35 0 24 -5 35 -15 35
-10 0 -15 -11 -15 -35z"/>
<path d="M2974 1373 c4 -25 26 -28 26 -4 0 12 -6 21 -14 21 -8 0 -13 -8 -12
-17z"/>
<path d="M2975 1330 c3 -5 10 -10 16 -10 5 0 9 5 9 10 0 6 -7 10 -16 10 -8 0
-12 -4 -9 -10z"/>
<path d="M3050 1354 c0 -45 24 -42 28 4 2 24 -1 32 -12 32 -12 0 -16 -10 -16
-36z"/>
<path d="M3090 1376 c0 -8 7 -16 15 -20 10 -4 15 1 15 14 0 11 -7 20 -15 20
-8 0 -15 -6 -15 -14z"/>
<path d="M3090 1330 c0 -5 7 -10 15 -10 8 0 15 5 15 10 0 6 -7 10 -15 10 -8 0
-15 -4 -15 -10z"/>
<path d="M3170 1355 c0 -19 5 -35 10 -35 6 0 10 16 10 35 0 19 -4 35 -10 35
-5 0 -10 -16 -10 -35z"/>
<path d="M3210 1370 c0 -13 5 -18 15 -14 8 4 15 12 15 20 0 8 -7 14 -15 14 -8
0 -15 -9 -15 -20z"/>
<path d="M3210 1330 c0 -5 4 -10 9 -10 6 0 13 5 16 10 3 6 -1 10 -9 10 -9 0
-16 -4 -16 -10z"/>
<path d="M1051 1342 c-12 -25 -14 -122 -2 -122 5 0 13 5 16 10 3 6 17 10 31
10 21 0 24 5 24 34 0 32 -3 35 -32 39 l-33 4 33 1 c40 2 39 22 -1 33 -20 6
-29 3 -36 -9z"/>
<path d="M1177 1336 c-5 -13 2 -16 34 -16 28 0 39 4 37 13 -7 19 -64 21 -71 3z"/>
<path d="M1310 1336 c-11 -14 -7 -16 30 -16 29 0 40 4 38 13 -7 18 -53 20 -68
3z"/>
<path d="M1440 1336 c-11 -14 -7 -16 30 -16 29 0 40 4 38 13 -7 18 -53 20 -68
3z"/>
<path d="M1577 1344 c-15 -16 -5 -24 29 -24 24 0 34 4 32 13 -5 13 -50 22 -61
11z"/>
<path d="M1140 1276 c0 -20 5 -36 10 -36 6 0 10 13 10 29 0 17 -4 33 -10 36
-6 4 -10 -8 -10 -29z"/>
<path d="M1172 1268 c3 -37 6 -43 28 -46 14 -2 31 -9 38 -14 9 -8 12 2 12 46
l0 56 -41 0 -40 0 3 -42z"/>
<path d="M1270 1257 l0 -55 48 -4 c26 -2 61 -1 77 2 l30 6 -22 15 c-17 10 -23
23 -23 52 0 38 0 38 -37 35 -31 -2 -39 -7 -41 -25 -2 -14 2 -23 10 -23 12 -1
58 -34 58 -42 0 -6 -42 -7 -68 -2 -21 4 -23 9 -17 43 4 24 2 42 -4 46 -7 4
-11 -12 -11 -48z"/>
<path d="M1400 1284 c0 -14 4 -23 10 -19 6 3 10 15 10 26 0 10 -4 19 -10 19
-5 0 -10 -12 -10 -26z"/>
<path d="M1437 1303 c-8 -8 -9 -43 -1 -43 3 0 14 5 25 11 15 7 24 7 35 -2 11
-9 14 -7 14 15 0 23 -4 26 -33 26 -19 0 -37 -3 -40 -7z"/>
<path d="M1530 1281 c0 -17 5 -33 10 -36 6 -4 10 8 10 29 0 20 -4 36 -10 36
-5 0 -10 -13 -10 -29z"/>
<path d="M1440 1215 c-11 -13 -7 -15 29 -15 30 0 41 4 41 15 0 10 -10 15 -29
15 -16 0 -34 -7 -41 -15z"/>
<path d="M1530 1215 c0 -8 5 -15 10 -15 6 0 10 7 10 15 0 8 -4 15 -10 15 -5 0
-10 -7 -10 -15z"/>
<path d="M1740 1715 c0 -10 11 -15 35 -15 24 0 35 5 35 15 0 10 -11 15 -35 15
-24 0 -35 -5 -35 -15z"/>
<path d="M1830 1716 c0 -11 10 -16 31 -16 38 0 35 24 -4 28 -19 2 -27 -1 -27
-12z"/>
<path d="M2770 1720 c0 -5 18 -10 40 -10 22 0 40 5 40 10 0 6 -18 10 -40 10
-22 0 -40 -4 -40 -10z"/>
<path d="M2860 1720 c0 -6 39 -10 96 -10 61 0 93 4 89 10 -3 6 -46 10 -96 10
-53 0 -89 -4 -89 -10z"/>
<path d="M5800 1710 c0 -6 -28 -10 -65 -10 -58 0 -65 -2 -65 -20 0 -19 7 -20
110 -20 103 0 110 1 110 20 0 13 7 20 20 20 11 0 20 5 20 10 0 15 -58 12 -63
-2 -3 -10 -9 -10 -26 0 -25 15 -41 16 -41 2z"/>
<path d="M5950 1710 c0 -5 11 -10 25 -10 14 0 25 5 25 10 0 6 -11 10 -25 10
-14 0 -25 -4 -25 -10z"/>
<path d="M6040 1710 c0 -5 7 -10 15 -10 8 0 15 5 15 10 0 6 -7 10 -15 10 -8 0
-15 -4 -15 -10z"/>
<path d="M3807 1693 c-11 -10 -8 -53 3 -53 6 0 10 14 10 30 0 31 -2 35 -13 23z"/>
<path d="M3842 1670 c0 -19 2 -27 5 -17 2 9 2 25 0 35 -3 9 -5 1 -5 -18z"/>
<path d="M3952 1680 c0 -14 2 -19 5 -12 2 6 2 18 0 25 -3 6 -5 1 -5 -13z"/>
<path d="M3992 1680 c0 -14 2 -19 5 -12 2 6 2 18 0 25 -3 6 -5 1 -5 -13z"/>
<path d="M4012 1680 c0 -14 2 -19 5 -12 2 6 2 18 0 25 -3 6 -5 1 -5 -13z"/>
<path d="M4032 1680 c0 -14 2 -19 5 -12 2 6 2 18 0 25 -3 6 -5 1 -5 -13z"/>
<path d="M4052 1680 c0 -14 2 -19 5 -12 2 6 2 18 0 25 -3 6 -5 1 -5 -13z"/>
<path d="M4090 1687 c0 -7 9 -13 20 -13 11 0 20 6 20 13 0 7 -9 13 -20 13 -11
0 -20 -6 -20 -13z"/>
<path d="M4150 1686 c0 -17 32 -15 38 2 2 7 -6 12 -17 12 -12 0 -21 -6 -21
-14z"/>
<path d="M4210 1686 c0 -17 32 -15 38 2 2 7 -6 12 -17 12 -12 0 -21 -6 -21
-14z"/>
<path d="M4262 1688 c6 -17 38 -19 38 -2 0 8 -9 14 -21 14 -11 0 -19 -5 -17
-12z"/>
<path d="M1983 1663 c32 -2 81 -2 110 0 29 2 3 3 -58 3 -60 0 -84 -1 -52 -3z"/>
<path d="M2770 1660 c0 -5 18 -10 40 -10 22 0 40 5 40 10 0 6 -18 10 -40 10
-22 0 -40 -4 -40 -10z"/>
<path d="M2860 1660 c0 -6 38 -10 95 -10 57 0 95 4 95 10 0 6 -38 10 -95 10
-57 0 -95 -4 -95 -10z"/>
<path d="M3290 1662 c0 -5 7 -9 15 -9 8 0 12 4 9 9 -3 4 -9 8 -15 8 -5 0 -9
-4 -9 -8z"/>
<path d="M3556 1661 c9 -9 34 -9 34 -1 0 5 -9 8 -20 7 -10 -1 -17 -3 -14 -6z"/>
<path d="M6050 1660 c0 -5 5 -10 10 -10 6 0 10 5 10 10 0 6 -4 10 -10 10 -5 0
-10 -4 -10 -10z"/>
<path d="M3650 1650 c0 -5 12 -10 28 -9 24 0 25 1 7 9 -27 12 -35 12 -35 0z"/>
<path d="M4031 1634 c0 -11 3 -14 6 -6 3 7 2 16 -1 19 -3 4 -6 -2 -5 -13z"/>
<path d="M4052 1630 c0 -14 2 -19 5 -12 2 6 2 18 0 25 -3 6 -5 1 -5 -13z"/>
<path d="M4090 1625 c0 -8 9 -15 20 -15 11 0 20 7 20 15 0 8 -9 15 -20 15 -11
0 -20 -7 -20 -15z"/>
<path d="M4150 1625 c0 -8 9 -15 20 -15 11 0 20 7 20 15 0 8 -9 15 -20 15 -11
0 -20 -7 -20 -15z"/>
<path d="M4210 1626 c0 -10 9 -16 21 -16 24 0 21 23 -4 28 -10 2 -17 -3 -17
-12z"/>
<path d="M4267 1633 c-13 -12 -7 -23 13 -23 11 0 20 7 20 15 0 15 -21 21 -33
8z"/>
<path d="M5530 1620 c0 -11 7 -20 15 -20 8 0 15 9 15 20 0 11 -7 20 -15 20 -8
0 -15 -9 -15 -20z"/>
<path d="M5580 1620 c0 -11 7 -20 15 -20 8 0 15 9 15 20 0 11 -7 20 -15 20 -8
0 -15 -9 -15 -20z"/>
<path d="M5630 1620 c0 -11 7 -20 15 -20 8 0 15 9 15 20 0 11 -7 20 -15 20 -8
0 -15 -9 -15 -20z"/>
<path d="M5680 1620 c0 -19 7 -20 100 -20 93 0 100 1 100 20 0 19 -7 20 -100
20 -93 0 -100 -1 -100 -20z"/>
<path d="M5900 1620 c0 -11 7 -20 15 -20 8 0 15 9 15 20 0 11 -7 20 -15 20 -8
0 -15 -9 -15 -20z"/>
<path d="M5950 1620 c0 -11 7 -20 15 -20 8 0 15 9 15 20 0 11 -7 20 -15 20 -8
0 -15 -9 -15 -20z"/>
<path d="M6000 1620 c0 -11 7 -20 15 -20 8 0 15 9 15 20 0 11 -7 20 -15 20 -8
0 -15 -9 -15 -20z"/>
<path d="M557 1624 c-4 -4 -7 -22 -7 -41 0 -29 3 -33 26 -33 23 0 25 3 22 37
-3 36 -23 54 -41 37z"/>
<path d="M617 1624 c-4 -4 -7 -22 -7 -41 0 -29 3 -33 26 -33 23 0 25 3 22 37
-3 36 -23 54 -41 37z"/>
<path d="M676 1615 c-3 -9 -6 -28 -6 -41 0 -19 5 -24 26 -24 23 0 25 3 22 37
-3 40 -30 58 -42 28z"/>
<path d="M738 1590 c-3 -37 -2 -40 22 -40 25 0 27 8 21 73 -1 4 -10 7 -20 7
-15 0 -20 -9 -23 -40z"/>
<path d="M3290 1595 c0 -31 3 -35 25 -35 22 0 25 4 25 35 0 31 -3 35 -25 35
-22 0 -25 -4 -25 -35z"/>
<path d="M3420 1595 c0 -28 4 -35 20 -35 16 0 20 7 20 35 0 28 -4 35 -20 35
-16 0 -20 -7 -20 -35z"/>
<path d="M3540 1595 c0 -31 3 -35 25 -35 22 0 25 4 25 35 0 31 -3 35 -25 35
-22 0 -25 -4 -25 -35z"/>
<path d="M3663 1613 c9 -2 23 -2 30 0 6 3 -1 5 -18 5 -16 0 -22 -2 -12 -5z"/>
<path d="M1940 1575 c0 -19 5 -35 10 -35 6 0 10 16 10 35 0 19 -4 35 -10 35
-5 0 -10 -16 -10 -35z"/>
<path d="M1980 1575 c0 -31 3 -35 25 -35 22 0 25 4 25 35 0 31 -3 35 -25 35
-22 0 -25 -4 -25 -35z"/>
<path d="M1097 1594 c-4 -4 -7 -20 -7 -36 0 -22 5 -28 21 -28 17 0 20 5 17 32
-3 31 -17 45 -31 32z"/>
<path d="M1147 1593 c-4 -3 -7 -19 -7 -35 0 -21 5 -28 20 -28 16 0 20 7 20 35
0 33 -16 46 -33 28z"/>
<path d="M1197 1593 c-4 -3 -7 -19 -7 -35 0 -21 5 -28 20 -28 16 0 20 7 20 35
0 33 -16 46 -33 28z"/>
<path d="M1244 1574 c-7 -28 7 -49 29 -41 9 3 12 15 9 36 -5 38 -29 41 -38 5z"/>
<path d="M1300 1565 c0 -28 4 -35 20 -35 20 0 26 22 14 54 -12 30 -34 18 -34
-19z"/>
<path d="M1350 1566 c0 -30 4 -36 21 -36 17 0 20 5 17 32 -2 22 -9 34 -20 36
-15 3 -18 -4 -18 -32z"/>
<path d="M1407 1594 c-4 -4 -7 -20 -7 -36 0 -22 5 -28 21 -28 17 0 20 5 17 32
-3 31 -17 45 -31 32z"/>
<path d="M1457 1593 c-4 -3 -7 -19 -7 -35 0 -21 5 -28 20 -28 16 0 20 7 20 35
0 33 -16 46 -33 28z"/>
<path d="M1507 1593 c-4 -3 -7 -19 -7 -35 0 -21 5 -28 20 -28 16 0 20 7 20 35
0 33 -16 46 -33 28z"/>
<path d="M1554 1576 c-7 -28 1 -46 21 -46 17 0 27 27 20 51 -9 27 -34 23 -41
-5z"/>
<path d="M4052 1580 c0 -14 2 -19 5 -12 2 6 2 18 0 25 -3 6 -5 1 -5 -13z"/>
<path d="M5670 1559 c0 -19 5 -20 130 -18 72 1 130 6 130 11 0 4 -7 8 -15 8
-8 0 -15 5 -15 10 0 6 -45 10 -115 10 -109 0 -115 -1 -115 -21z"/>
<path d="M4090 1555 c0 -8 9 -15 20 -15 11 0 20 7 20 15 0 8 -9 15 -20 15 -11
0 -20 -7 -20 -15z"/>
<path d="M4150 1557 c0 -7 9 -13 20 -14 11 -1 20 4 20 13 0 8 -9 14 -20 14
-11 0 -20 -6 -20 -13z"/>
<path d="M4210 1554 c0 -9 7 -14 17 -12 25 5 28 28 4 28 -12 0 -21 -6 -21 -16z"/>
<path d="M4262 1558 c7 -19 38 -22 38 -4 0 10 -9 16 -21 16 -12 0 -19 -5 -17
-12z"/>
<path d="M5943 1553 c10 -9 57 -10 57 -1 0 4 -14 8 -32 8 -17 0 -28 -3 -25 -7z"/>
<path d="M6040 1556 c0 -2 7 -6 15 -10 8 -3 15 -1 15 4 0 6 -7 10 -15 10 -8 0
-15 -2 -15 -4z"/>
<path d="M550 1520 c0 -15 7 -20 25 -20 18 0 25 5 25 20 0 15 -7 20 -25 20
-18 0 -25 -5 -25 -20z"/>
<path d="M612 1523 c2 -10 13 -19 26 -21 17 -3 22 2 22 17 0 16 -6 21 -26 21
-19 0 -25 -5 -22 -17z"/>
<path d="M675 1530 c-9 -15 4 -30 26 -30 12 0 19 7 19 20 0 21 -33 29 -45 10z"/>
<path d="M740 1520 c0 -16 5 -21 23 -18 12 2 22 10 22 18 0 8 -10 16 -22 18
-18 3 -23 -2 -23 -18z"/>
<path d="M4052 1520 c0 -14 2 -19 5 -12 2 6 2 18 0 25 -3 6 -5 1 -5 -13z"/>
<path d="M3780 1520 c0 -5 11 -10 25 -10 14 0 25 5 25 10 0 6 -11 10 -25 10
-14 0 -25 -4 -25 -10z"/>
<path d="M3840 1520 c0 -5 11 -10 25 -10 14 0 25 5 25 10 0 6 -11 10 -25 10
-14 0 -25 -4 -25 -10z"/>
<path d="M3910 1520 c0 -5 11 -10 25 -10 14 0 25 5 25 10 0 6 -11 10 -25 10
-14 0 -25 -4 -25 -10z"/>
<path d="M3970 1520 c0 -5 11 -10 25 -10 14 0 25 5 25 10 0 6 -11 10 -25 10
-14 0 -25 -4 -25 -10z"/>
<path d="M4900 1525 c-5 -17 -8 -29 -9 -47 -1 -24 -20 -23 -47 3 l-22 21 -12
-22 c-10 -18 -9 -21 7 -18 14 2 19 -7 26 -44 5 -27 13 -48 18 -48 5 0 9 6 9
13 0 18 58 16 70 -3 7 -11 10 -11 10 -2 0 7 5 10 10 7 6 -3 10 4 11 17 0 13 3
17 6 11 9 -23 23 -14 14 10 -8 22 -11 23 -55 26 -22 1 -25 7 -29 44 -2 23 -5
38 -7 32z"/>
<path d="M1090 1510 c0 -5 9 -10 20 -10 11 0 20 5 20 10 0 6 -9 10 -20 10 -11
0 -20 -4 -20 -10z"/>
<path d="M1140 1510 c0 -5 9 -10 20 -10 11 0 20 5 20 10 0 6 -9 10 -20 10 -11
0 -20 -4 -20 -10z"/>
<path d="M1190 1510 c0 -5 9 -10 20 -10 11 0 20 5 20 10 0 6 -9 10 -20 10 -11
0 -20 -4 -20 -10z"/>
<path d="M1240 1510 c0 -5 11 -10 25 -10 14 0 25 5 25 10 0 6 -11 10 -25 10
-14 0 -25 -4 -25 -10z"/>
<path d="M1300 1510 c0 -5 9 -10 20 -10 11 0 20 5 20 10 0 6 -9 10 -20 10 -11
0 -20 -4 -20 -10z"/>
<path d="M1350 1510 c0 -5 9 -10 20 -10 11 0 20 5 20 10 0 6 -9 10 -20 10 -11
0 -20 -4 -20 -10z"/>
<path d="M1400 1510 c0 -5 9 -10 20 -10 11 0 20 5 20 10 0 6 -9 10 -20 10 -11
0 -20 -4 -20 -10z"/>
<path d="M1450 1510 c0 -5 9 -10 20 -10 11 0 20 5 20 10 0 6 -9 10 -20 10 -11
0 -20 -4 -20 -10z"/>
<path d="M1500 1510 c0 -5 9 -10 20 -10 11 0 20 5 20 10 0 6 -9 10 -20 10 -11
0 -20 -4 -20 -10z"/>
<path d="M1550 1510 c0 -5 11 -10 25 -10 14 0 25 5 25 10 0 6 -11 10 -25 10
-14 0 -25 -4 -25 -10z"/>
<path d="M4090 1490 c0 -9 8 -16 20 -16 12 0 20 7 20 16 0 9 -8 16 -20 16 -12
0 -20 -7 -20 -16z"/>
<path d="M4150 1490 c0 -13 5 -17 20 -13 24 6 22 25 -3 29 -11 1 -17 -5 -17
-16z"/>
<path d="M4210 1490 c0 -12 6 -17 18 -16 9 2 17 9 17 16 0 7 -8 14 -17 16 -12
1 -18 -4 -18 -16z"/>
<path d="M4264 1498 c-7 -11 2 -21 21 -24 8 -1 15 6 15 15 0 18 -27 24 -36 9z"/>
<path d="M5530 1490 c0 -11 7 -20 15 -20 8 0 15 9 15 20 0 11 -7 20 -15 20 -8
0 -15 -9 -15 -20z"/>
<path d="M5580 1490 c0 -11 7 -20 15 -20 8 0 15 9 15 20 0 11 -7 20 -15 20 -8
0 -15 -9 -15 -20z"/>
<path d="M5630 1490 c0 -11 7 -20 15 -20 8 0 15 9 15 20 0 11 -7 20 -15 20 -8
0 -15 -9 -15 -20z"/>
<path d="M5680 1490 c0 -19 7 -20 100 -20 93 0 100 1 100 20 0 19 -7 20 -100
20 -93 0 -100 -1 -100 -20z"/>
<path d="M5900 1490 c0 -11 7 -20 15 -20 8 0 15 9 15 20 0 11 -7 20 -15 20 -8
0 -15 -9 -15 -20z"/>
<path d="M5950 1490 c0 -11 7 -20 15 -20 8 0 15 9 15 20 0 11 -7 20 -15 20 -8
0 -15 -9 -15 -20z"/>
<path d="M6000 1490 c0 -11 7 -20 15 -20 8 0 15 9 15 20 0 11 -7 20 -15 20 -8
0 -15 -9 -15 -20z"/>
<path d="M6050 1500 c0 -5 5 -10 10 -10 6 0 10 5 10 10 0 6 -4 10 -10 10 -5 0
-10 -4 -10 -10z"/>
<path d="M3780 1474 c0 -8 11 -14 25 -14 14 0 25 4 25 9 0 5 -11 11 -25 13
-17 4 -25 1 -25 -8z"/>
<path d="M3863 1483 c-31 -6 -29 -23 2 -23 16 0 25 6 25 15 0 8 -1 14 -2 14
-2 -1 -13 -4 -25 -6z"/>
<path d="M3910 1473 c0 -7 11 -13 26 -13 15 0 24 5 22 12 -6 16 -48 18 -48 1z"/>
<path d="M3970 1473 c0 -7 11 -13 25 -13 14 0 25 6 25 13 0 6 -11 12 -25 12
-14 0 -25 -6 -25 -12z"/>
<path d="M4052 1470 c0 -14 2 -19 5 -12 2 6 2 18 0 25 -3 6 -5 1 -5 -13z"/>
<path d="M1987 1450 c-4 -16 0 -20 19 -20 17 0 24 6 24 20 0 13 -7 20 -19 20
-10 0 -21 -9 -24 -20z"/>
<path d="M1940 1445 c0 -8 5 -15 10 -15 6 0 10 7 10 15 0 8 -4 15 -10 15 -5 0
-10 -7 -10 -15z"/>
<path d="M6045 1450 c-3 -5 1 -10 9 -10 9 0 16 5 16 10 0 6 -4 10 -9 10 -6 0
-13 -4 -16 -10z"/>
<path d="M3061 1446 c9 -9 89 -13 89 -5 0 5 -21 9 -47 9 -25 0 -44 -2 -42 -4z"/>
<path d="M3340 1395 c0 -44 3 -53 15 -49 8 4 15 15 15 25 0 17 8 19 70 19 l69
0 3 -72 c2 -46 7 -73 16 -76 9 -3 12 22 12 102 l0 106 -100 0 -100 0 0 -55z"/>
<path d="M3577 1443 c-10 -18 -8 -143 2 -143 6 0 11 14 11 30 0 29 2 30 45 30
l45 0 0 -60 c0 -35 4 -60 10 -60 7 0 10 37 8 103 l-3 102 -57 3 c-31 2 -58 -1
-61 -5z"/>
<path d="M5670 1425 l0 -25 123 1 c67 0 116 3 110 6 -21 8 -15 31 10 36 12 2
-38 5 -110 6 l-133 1 0 -25z"/>
<path d="M5958 1443 c12 -2 30 -2 40 0 9 3 -1 5 -23 4 -22 0 -30 -2 -17 -4z"/>
<path d="M3780 1425 c0 -9 9 -15 25 -15 16 0 25 6 25 15 0 9 -9 15 -25 15 -16
0 -25 -6 -25 -15z"/>
<path d="M3840 1425 c0 -9 9 -15 25 -15 16 0 25 6 25 15 0 9 -9 15 -25 15 -16
0 -25 -6 -25 -15z"/>
<path d="M3910 1424 c0 -10 7 -14 22 -12 32 5 35 28 4 28 -17 0 -26 -5 -26
-16z"/>
<path d="M3970 1425 c0 -9 9 -15 25 -15 16 0 25 6 25 15 0 9 -9 15 -25 15 -16
0 -25 -6 -25 -15z"/>
<path d="M4052 1420 c0 -14 2 -19 5 -12 2 6 2 18 0 25 -3 6 -5 1 -5 -13z"/>
<path d="M4090 1425 c0 -8 9 -15 20 -15 11 0 20 7 20 15 0 8 -9 15 -20 15 -11
0 -20 -7 -20 -15z"/>
<path d="M4150 1425 c0 -8 9 -15 20 -15 11 0 20 7 20 15 0 8 -9 15 -20 15 -11
0 -20 -7 -20 -15z"/>
<path d="M4210 1425 c0 -10 7 -15 18 -13 21 4 19 22 -2 26 -10 2 -16 -3 -16
-13z"/>
<path d="M4267 1433 c-13 -12 -7 -23 13 -23 11 0 20 7 20 15 0 15 -21 21 -33
8z"/>
<path d="M5413 1433 c-19 -7 -17 -73 2 -73 11 0 15 11 15 40 0 22 -1 40 -2 39
-2 0 -9 -3 -15 -6z"/>
<path d="M5450 1401 c0 -30 4 -41 16 -41 11 0 14 9 12 37 -4 52 -28 56 -28 4z"/>
<path d="M5497 1434 c-4 -4 -7 -22 -7 -41 0 -27 4 -33 21 -33 17 0 20 5 17 37
-4 35 -17 51 -31 37z"/>
<path d="M5540 1398 c0 -30 4 -38 18 -38 14 0 17 7 14 38 -2 25 -9 39 -18 39
-10 0 -14 -12 -14 -39z"/>
<path d="M6045 1400 c3 -5 10 -10 16 -10 5 0 9 5 9 10 0 6 -7 10 -16 10 -8 0
-12 -4 -9 -10z"/>
<path d="M1940 1325 c0 -37 4 -65 10 -65 6 0 10 28 10 65 0 37 -4 65 -10 65
-6 0 -10 -28 -10 -65z"/>
<path d="M1980 1330 c0 -57 1 -60 25 -60 24 0 25 3 25 60 0 57 -1 60 -25 60
-24 0 -25 -3 -25 -60z"/>
<path d="M3780 1380 c0 -5 11 -10 25 -10 14 0 25 5 25 10 0 6 -11 10 -25 10
-14 0 -25 -4 -25 -10z"/>
<path d="M3840 1380 c0 -5 11 -10 25 -10 14 0 25 5 25 10 0 6 -11 10 -25 10
-14 0 -25 -4 -25 -10z"/>
<path d="M3910 1380 c0 -5 11 -10 25 -10 14 0 25 5 25 10 0 6 -11 10 -25 10
-14 0 -25 -4 -25 -10z"/>
<path d="M3970 1380 c0 -5 11 -10 25 -10 14 0 25 5 25 10 0 6 -11 10 -25 10
-14 0 -25 -4 -25 -10z"/>
<path d="M4052 1360 c0 -14 2 -19 5 -12 2 6 2 18 0 25 -3 6 -5 1 -5 -13z"/>
<path d="M4150 1359 c0 -12 7 -19 20 -19 11 0 20 6 20 14 0 7 -9 16 -20 19
-15 4 -20 0 -20 -14z"/>
<path d="M5156 1364 c-3 -9 -6 -18 -6 -20 0 -2 53 -3 118 -2 l117 2 -107 3
c-98 3 -136 14 -90 26 13 4 12 5 -4 6 -12 0 -25 -6 -28 -15z"/>
<path d="M5228 1373 c7 -3 16 -2 19 1 4 3 -2 6 -13 5 -11 0 -14 -3 -6 -6z"/>
<path d="M5278 1373 c7 -3 16 -2 19 1 4 3 -2 6 -13 5 -11 0 -14 -3 -6 -6z"/>
<path d="M5338 1373 c7 -3 16 -2 19 1 4 3 -2 6 -13 5 -11 0 -14 -3 -6 -6z"/>
<path d="M5618 1373 c7 -3 16 -2 19 1 4 3 -2 6 -13 5 -11 0 -14 -3 -6 -6z"/>
<path d="M5680 1360 c0 -19 7 -20 89 -20 67 0 90 3 94 14 9 23 -2 26 -95 26
-81 0 -88 -2 -88 -20z"/>
<path d="M6004 1364 c3 -9 6 -18 6 -20 0 -2 5 -4 10 -4 6 0 10 9 10 20 0 12
-7 20 -16 20 -11 0 -14 -5 -10 -16z"/>
<path d="M4090 1355 c0 -8 9 -15 20 -15 11 0 20 7 20 15 0 8 -9 15 -20 15 -11
0 -20 -7 -20 -15z"/>
<path d="M4210 1354 c0 -9 7 -14 17 -12 25 5 28 28 4 28 -12 0 -21 -6 -21 -16z"/>
<path d="M4262 1358 c6 -17 38 -19 38 -2 0 8 -9 14 -21 14 -11 0 -19 -5 -17
-12z"/>
<path d="M5590 1348 c0 -5 16 -8 35 -8 19 0 35 3 35 8 0 4 -16 7 -35 7 -19 0
-35 -3 -35 -7z"/>
<path d="M6050 1350 c0 -5 5 -10 10 -10 6 0 10 5 10 10 0 6 -4 10 -10 10 -5 0
-10 -4 -10 -10z"/>
<path d="M3600 1323 c0 -16 6 -23 19 -23 10 0 26 -10 34 -22 16 -22 16 -22 16
22 1 45 1 45 -34 45 -30 1 -35 -3 -35 -22z"/>
<path d="M3780 1335 c0 -9 9 -15 25 -15 16 0 25 6 25 15 0 9 -9 15 -25 15 -16
0 -25 -6 -25 -15z"/>
<path d="M3840 1335 c0 -9 9 -15 25 -15 16 0 25 6 25 15 0 9 -9 15 -25 15 -16
0 -25 -6 -25 -15z"/>
<path d="M3910 1335 c0 -9 9 -15 25 -15 16 0 25 6 25 15 0 9 -9 15 -25 15 -16
0 -25 -6 -25 -15z"/>
<path d="M3970 1335 c0 -9 9 -15 25 -15 16 0 25 6 25 15 0 9 -9 15 -25 15 -16
0 -25 -6 -25 -15z"/>
<path d="M5555 1331 c-3 -5 -1 -12 5 -16 5 -3 10 1 10 9 0 18 -6 21 -15 7z"/>
<path d="M4051 1314 c0 -11 3 -14 6 -6 3 7 2 16 -1 19 -3 4 -6 -2 -5 -13z"/>
<path d="M4848 1323 c6 -2 18 -2 25 0 6 3 1 5 -13 5 -14 0 -19 -2 -12 -5z"/>
<path d="M4908 1323 c6 -2 18 -2 25 0 6 3 1 5 -13 5 -14 0 -19 -2 -12 -5z"/>
<path d="M5400 1295 c0 -19 4 -35 9 -35 5 0 16 -7 24 -15 15 -15 52 -19 97
-11 14 2 28 5 33 5 4 1 7 9 7 19 -1 16 -1 16 -11 -1 -10 -17 -12 -17 -47 3
-20 11 -50 24 -66 30 -19 7 -26 15 -22 25 3 9 0 15 -9 15 -10 0 -15 -11 -15
-35z"/>
<path d="M4110 1295 c0 -8 5 -15 10 -15 6 0 10 7 10 15 0 8 -4 15 -10 15 -5 0
-10 -7 -10 -15z"/>
<path d="M4150 1289 c0 -12 6 -16 20 -12 11 3 20 11 20 19 0 7 -9 12 -20 11
-12 -1 -20 -8 -20 -18z"/>
<path d="M4210 1290 c0 -13 5 -17 20 -13 24 6 22 25 -3 29 -11 1 -17 -5 -17
-16z"/>
<path d="M4264 1298 c-11 -17 6 -22 22 -7 13 14 13 16 -1 16 -9 0 -18 -4 -21
-9z"/>
<path d="M4825 1300 c8 -13 115 -13 135 0 10 7 -9 10 -63 10 -50 0 -76 -4 -72
-10z"/>
<path d="M3780 1290 c0 -5 11 -10 25 -10 14 0 25 5 25 10 0 6 -11 10 -25 10
-14 0 -25 -4 -25 -10z"/>
<path d="M3840 1290 c0 -5 11 -10 25 -10 14 0 25 5 25 10 0 6 -11 10 -25 10
-14 0 -25 -4 -25 -10z"/>
<path d="M3910 1290 c0 -5 11 -10 25 -10 14 0 25 5 25 10 0 6 -11 10 -25 10
-14 0 -25 -4 -25 -10z"/>
<path d="M3970 1290 c0 -5 11 -10 25 -10 14 0 25 5 25 10 0 6 -11 10 -25 10
-14 0 -25 -4 -25 -10z"/>
<path d="M3050 1250 c0 -20 5 -30 15 -30 10 0 15 10 15 30 0 20 -5 30 -15 30
-10 0 -15 -10 -15 -30z"/>
<path d="M3210 1276 c0 -2 7 -9 15 -16 12 -10 15 -10 15 4 0 9 -7 16 -15 16
-8 0 -15 -2 -15 -4z"/>
<path d="M4032 1250 c2 -26 28 -75 28 -52 0 7 6 12 13 11 32 -4 54 2 54 16 0
10 -4 12 -10 6 -11 -11 -66 13 -79 33 -4 6 -6 0 -6 -14z"/>
<path d="M4672 1242 c1 -24 5 -32 15 -27 8 3 24 5 36 5 19 1 18 3 -8 17 -16 9
-33 21 -37 27 -4 5 -6 -4 -6 -22z"/>
<path d="M3780 1249 c0 -5 11 -9 25 -9 14 0 25 2 25 4 0 2 -11 6 -25 8 -14 3
-25 1 -25 -3z"/>
<path d="M3857 1253 c-9 -2 -15 -9 -12 -14 9 -14 22 -11 29 6 3 8 4 14 3 14
-1 -1 -10 -3 -20 -6z"/>
<path d="M4470 1241 c0 -26 21 -36 58 -25 23 6 24 8 7 12 -10 2 -29 11 -42 19
-22 14 -23 14 -23 -6z"/>
<path d="M5168 1243 c6 -2 18 -2 25 0 6 3 1 5 -13 5 -14 0 -19 -2 -12 -5z"/>
<path d="M5618 1243 c7 -3 16 -2 19 1 4 3 -2 6 -13 5 -11 0 -14 -3 -6 -6z"/>
<path d="M170 1214 c0 -16 18 -18 38 -5 10 6 7 10 -12 13 -18 4 -26 1 -26 -8z"/>
<path d="M4632 1200 c0 -14 2 -19 5 -12 2 6 2 18 0 25 -3 6 -5 1 -5 -13z"/>
<path d="M3840 1200 c0 -6 4 -9 9 -6 5 4 12 1 14 -4 3 -6 4 -5 3 2 -3 15 -26
23 -26 8z"/>
<path d="M4180 1200 c0 -5 9 -10 20 -10 11 0 20 5 20 10 0 6 -9 10 -20 10 -11
0 -20 -4 -20 -10z"/>
<path d="M183 1063 c32 -2 81 -2 110 0 29 2 3 3 -58 3 -60 0 -84 -1 -52 -3z"/>
<path d="M468 1063 c7 -3 16 -2 19 1 4 3 -2 6 -13 5 -11 0 -14 -3 -6 -6z"/>
<path d="M573 1063 c42 -2 112 -2 155 0 42 1 7 3 -78 3 -85 0 -120 -2 -77 -3z"/>
<path d="M818 1063 c6 -2 18 -2 25 0 6 3 1 5 -13 5 -14 0 -19 -2 -12 -5z"/>
<path d="M878 1063 c7 -3 16 -2 19 1 4 3 -2 6 -13 5 -11 0 -14 -3 -6 -6z"/>
<path d="M928 1063 c12 -2 32 -2 45 0 12 2 2 4 -23 4 -25 0 -35 -2 -22 -4z"/>
<path d="M1138 1063 c39 -2 105 -2 145 0 39 1 7 3 -73 3 -80 0 -112 -2 -72 -3z"/>
<path d="M1498 1063 c68 -2 176 -2 240 0 64 1 9 3 -123 3 -132 0 -185 -2 -117
-3z"/>
<path d="M1868 1063 c7 -3 16 -2 19 1 4 3 -2 6 -13 5 -11 0 -14 -3 -6 -6z"/>
<path d="M1908 1063 c6 -2 18 -2 25 0 6 3 1 5 -13 5 -14 0 -19 -2 -12 -5z"/>
<path d="M1963 1063 c9 -2 25 -2 35 0 9 3 1 5 -18 5 -19 0 -27 -2 -17 -5z"/>
<path d="M2038 1063 c7 -3 16 -2 19 1 4 3 -2 6 -13 5 -11 0 -14 -3 -6 -6z"/>
<path d="M2183 1063 c15 -2 37 -2 50 0 12 2 0 4 -28 4 -27 0 -38 -2 -22 -4z"/>
<path d="M2733 1063 c15 -2 37 -2 50 0 12 2 0 4 -28 4 -27 0 -38 -2 -22 -4z"/>
<path d="M3018 1063 c7 -3 16 -2 19 1 4 3 -2 6 -13 5 -11 0 -14 -3 -6 -6z"/>
<path d="M3308 1063 c12 -2 30 -2 40 0 9 3 -1 5 -23 4 -22 0 -30 -2 -17 -4z"/>
<path d="M3388 1063 c6 -2 18 -2 25 0 6 3 1 5 -13 5 -14 0 -19 -2 -12 -5z"/>
<path d="M3468 1063 c6 -2 18 -2 25 0 6 3 1 5 -13 5 -14 0 -19 -2 -12 -5z"/>
<path d="M3518 1063 c6 -2 18 -2 25 0 6 3 1 5 -13 5 -14 0 -19 -2 -12 -5z"/>
<path d="M3783 1063 c15 -2 37 -2 50 0 12 2 0 4 -28 4 -27 0 -38 -2 -22 -4z"/>
<path d="M3948 1063 c6 -2 18 -2 25 0 6 3 1 5 -13 5 -14 0 -19 -2 -12 -5z"/>
<path d="M4013 1063 c9 -2 23 -2 30 0 6 3 -1 5 -18 5 -16 0 -22 -2 -12 -5z"/>
<path d="M4138 1063 c28 -2 76 -2 105 0 28 2 5 3 -53 3 -58 0 -81 -1 -52 -3z"/>
<path d="M4383 1063 c48 -2 125 -2 170 0 45 1 6 3 -88 3 -93 0 -130 -2 -82 -3z"/>
<path d="M4653 1063 c9 -2 25 -2 35 0 9 3 1 5 -18 5 -19 0 -27 -2 -17 -5z"/>
<path d="M4738 1063 c18 -2 45 -2 60 0 15 2 0 4 -33 4 -33 0 -45 -2 -27 -4z"/>
<path d="M4843 1063 c9 -2 23 -2 30 0 6 3 -1 5 -18 5 -16 0 -22 -2 -12 -5z"/>
<path d="M4898 1063 c7 -3 16 -2 19 1 4 3 -2 6 -13 5 -11 0 -14 -3 -6 -6z"/>
<path d="M5023 1063 c15 -2 39 -2 55 0 15 2 2 4 -28 4 -30 0 -43 -2 -27 -4z"/>
<path d="M5118 1063 c6 -2 18 -2 25 0 6 3 1 5 -13 5 -14 0 -19 -2 -12 -5z"/>
<path d="M5228 1063 c34 -2 90 -2 125 0 34 2 6 3 -63 3 -69 0 -97 -1 -62 -3z"/>
<path d="M5548 1063 c23 -2 61 -2 85 0 23 2 4 4 -43 4 -47 0 -66 -2 -42 -4z"/>
<path d="M5903 1063 c9 -2 23 -2 30 0 6 3 -1 5 -18 5 -16 0 -22 -2 -12 -5z"/>
<path d="M6013 1063 c9 -2 25 -2 35 0 9 3 1 5 -18 5 -19 0 -27 -2 -17 -5z"/>
<path d="M6078 1063 c7 -3 16 -2 19 1 4 3 -2 6 -13 5 -11 0 -14 -3 -6 -6z"/>
<path d="M2607 1039 c7 -7 15 -10 18 -7 3 3 -2 9 -12 12 -14 6 -15 5 -6 -5z"/>
<path d="M420 1030 c0 -11 66 -14 73 -2 3 4 -13 8 -34 10 -22 1 -39 -2 -39 -8z"/>
<path d="M2340 1020 c0 -13 7 -20 18 -20 11 0 18 8 19 20 1 14 -4 20 -18 20
-12 0 -19 -7 -19 -20z"/>
<path d="M2430 1020 c0 -11 7 -20 15 -20 8 0 15 5 15 11 0 5 -4 7 -10 4 -6 -3
-7 1 -4 9 3 9 1 16 -5 16 -6 0 -11 -9 -11 -20z"/>
<path d="M4252 1029 c6 -4 52 -7 102 -7 72 0 84 2 56 9 -39 9 -174 8 -158 -2z"/>
<path d="M378 1023 c7 -3 16 -2 19 1 4 3 -2 6 -13 5 -11 0 -14 -3 -6 -6z"/>
<path d="M518 1023 c6 -2 18 -2 25 0 6 3 1 5 -13 5 -14 0 -19 -2 -12 -5z"/>
<path d="M2695 1010 c-3 -5 1 -10 9 -10 8 0 18 5 21 10 3 6 -1 10 -9 10 -8 0
-18 -4 -21 -10z"/>
<path d="M2353 963 c-7 -3 -13 -14 -13 -25 0 -13 5 -18 14 -15 8 3 17 1 20 -6
2 -7 5 0 5 15 1 29 -7 38 -26 31z"/>
<path d="M2120 938 c0 -11 7 -18 20 -18 13 0 20 7 20 19 0 14 -6 19 -20 18
-12 -1 -20 -8 -20 -19z"/>
<path d="M2420 941 c0 -17 18 -31 41 -31 5 0 8 11 7 25 -2 19 -8 25 -25 25
-16 0 -23 -6 -23 -19z"/>
<path d="M2501 944 c-1 -24 20 -37 44 -28 8 4 15 15 15 25 0 25 -40 26 -41 2
0 -15 -2 -15 -9 2 -8 19 -9 19 -9 -1z"/>
<path d="M2600 936 c0 -19 4 -22 25 -18 16 3 25 11 25 23 0 14 -7 19 -25 19
-20 0 -25 -5 -25 -24z"/>
<path d="M2694 945 c3 -9 6 -19 6 -21 0 -2 7 -4 16 -4 22 0 13 34 -10 38 -14
3 -17 0 -12 -13z"/>
<path d="M2918 913 c6 -2 18 -2 25 0 6 3 1 5 -13 5 -14 0 -19 -2 -12 -5z"/>
<path d="M2348 863 c6 -2 18 -2 25 0 6 3 1 5 -13 5 -14 0 -19 -2 -12 -5z"/>
<path d="M2433 863 c9 -2 23 -2 30 0 6 3 -1 5 -18 5 -16 0 -22 -2 -12 -5z"/>
<path d="M2502 864 c10 -9 58 -12 58 -3 0 5 -14 9 -32 9 -17 0 -29 -3 -26 -6z"/>
<path d="M2613 863 c9 -2 23 -2 30 0 6 3 -1 5 -18 5 -16 0 -22 -2 -12 -5z"/>
<path d="M2698 863 c7 -3 16 -2 19 1 4 3 -2 6 -13 5 -11 0 -14 -3 -6 -6z"/>
</g>
</svg>
