<?xml version="1.0" standalone="no"?>
<!DOCTYPE svg PUBLIC "-//W3C//DTD SVG 20010904//EN"
 "http://www.w3.org/TR/2001/REC-SVG-20010904/DTD/svg10.dtd">
<svg version="1.0" xmlns="http://www.w3.org/2000/svg"
 width="32.000000pt" height="32.000000pt" viewBox="0 0 32.000000 32.000000"
 preserveAspectRatio="xMidYMid meet">

<g transform="translate(0.000000,32.000000) scale(0.100000,-0.100000)"
fill="#000000" stroke="none">
<path d="M119 311 c-69 -22 -119 -87 -119 -153 0 -61 45 -127 102 -150 14 -6
18 -3 18 12 0 13 -7 20 -19 20 -11 0 -27 10 -35 22 -20 28 -12 37 12 15 23
-21 38 -22 46 -2 4 10 -1 15 -14 15 -35 0 -52 42 -45 105 7 52 9 56 29 50 27
-8 105 -8 132 0 20 6 22 2 29 -50 7 -62 -10 -105 -43 -105 -14 0 -17 -7 -14
-40 5 -48 24 -52 66 -14 56 53 70 127 36 193 -32 63 -117 102 -181 82z"/>
</g>
</svg>
