<?xml version="1.0" standalone="no"?>
<!DOCTYPE svg PUBLIC "-//W3C//DTD SVG 20010904//EN"
 "http://www.w3.org/TR/2001/REC-SVG-20010904/DTD/svg10.dtd">
<svg version="1.0" xmlns="http://www.w3.org/2000/svg"
 width="32.000000pt" height="32.000000pt" viewBox="0 0 32.000000 32.000000"
 preserveAspectRatio="xMidYMid meet">

<g transform="translate(0.000000,32.000000) scale(0.100000,-0.100000)"
fill="#000000" stroke="none">
<path d="M176 264 c-9 -8 -16 -24 -16 -35 0 -31 -64 -18 -107 23 -21 19 -23
20 -29 4 -4 -10 -2 -28 4 -41 7 -16 8 -25 1 -27 -6 -2 -1 -16 11 -31 12 -15
18 -27 13 -27 -4 -1 3 -10 16 -21 28 -23 24 -29 -21 -39 l-33 -7 28 -12 c94
-38 200 19 228 122 6 23 14 49 17 57 14 40 9 45 -44 48 -37 1 -57 -2 -68 -14z"/>
</g>
</svg>
